<svg width="73" height="30" viewBox="0 0 73 30" fill="none" xmlns="http://www.w3.org/2000/svg">
<rect width="73" height="30" rx="15" fill="#F8F9FA"/>
<path d="M12.5136 15.46L13.9656 11.464H13.9896L15.4176 15.46H12.5136ZM13.3656 10.432L10.0296 19H11.1936L12.1536 16.42H15.7776L16.7136 19H17.9736L14.6256 10.432H13.3656ZM20.8759 19.828C20.7559 20.132 20.6359 20.388 20.5159 20.596C20.4039 20.804 20.2759 20.972 20.1319 21.1C19.9959 21.236 19.8399 21.332 19.6639 21.388C19.4959 21.452 19.2999 21.484 19.0759 21.484C18.9559 21.484 18.8359 21.476 18.7159 21.46C18.5959 21.444 18.4799 21.416 18.3679 21.376V20.44C18.4559 20.48 18.5559 20.512 18.6679 20.536C18.7879 20.568 18.8879 20.584 18.9679 20.584C19.1759 20.584 19.3479 20.532 19.4839 20.428C19.6279 20.332 19.7359 20.192 19.8079 20.008L20.2279 18.964L17.7679 12.796H18.9199L20.7319 17.872H20.7559L22.4959 12.796H23.5759L20.8759 19.828ZM29.5759 19V12.796H28.5559V16.3C28.5559 16.58 28.5159 16.84 28.4359 17.08C28.3639 17.312 28.2519 17.516 28.0999 17.692C27.9479 17.868 27.7559 18.004 27.5239 18.1C27.2999 18.196 27.0319 18.244 26.7199 18.244C26.3279 18.244 26.0199 18.132 25.7959 17.908C25.5719 17.684 25.4599 17.38 25.4599 16.996V12.796H24.4399V16.876C24.4399 17.212 24.4719 17.52 24.5359 17.8C24.6079 18.072 24.7279 18.308 24.8959 18.508C25.0639 18.708 25.2839 18.864 25.5559 18.976C25.8279 19.08 26.1679 19.132 26.5759 19.132C27.0319 19.132 27.4279 19.044 27.7639 18.868C28.0999 18.684 28.3759 18.4 28.5919 18.016H28.6159V19H29.5759ZM31.8518 15.952C31.8518 15.648 31.8838 15.352 31.9478 15.064C32.0118 14.776 32.1158 14.52 32.2598 14.296C32.4038 14.072 32.5958 13.892 32.8358 13.756C33.0758 13.62 33.3678 13.552 33.7118 13.552C34.0638 13.552 34.3638 13.62 34.6118 13.756C34.8598 13.884 35.0598 14.056 35.2118 14.272C35.3718 14.488 35.4878 14.74 35.5598 15.028C35.6318 15.308 35.6678 15.6 35.6678 15.904C35.6678 16.192 35.6318 16.476 35.5598 16.756C35.4958 17.036 35.3878 17.288 35.2358 17.512C35.0838 17.728 34.8878 17.904 34.6478 18.04C34.4078 18.176 34.1158 18.244 33.7718 18.244C33.4438 18.244 33.1558 18.18 32.9078 18.052C32.6678 17.924 32.4678 17.752 32.3078 17.536C32.1558 17.32 32.0398 17.076 31.9598 16.804C31.8878 16.524 31.8518 16.24 31.8518 15.952ZM36.6518 19V10.432H35.6318V13.624H35.6078C35.4958 13.44 35.3558 13.288 35.1878 13.168C35.0278 13.04 34.8558 12.94 34.6718 12.868C34.4878 12.788 34.3038 12.732 34.1198 12.7C33.9358 12.668 33.7638 12.652 33.6038 12.652C33.1318 12.652 32.7158 12.74 32.3558 12.916C32.0038 13.084 31.7078 13.316 31.4678 13.612C31.2358 13.9 31.0598 14.24 30.9398 14.632C30.8278 15.024 30.7718 15.44 30.7718 15.88C30.7718 16.32 30.8318 16.736 30.9518 17.128C31.0718 17.52 31.2478 17.864 31.4798 18.16C31.7198 18.456 32.0158 18.692 32.3678 18.868C32.7278 19.044 33.1478 19.132 33.6278 19.132C34.0598 19.132 34.4558 19.056 34.8158 18.904C35.1758 18.752 35.4398 18.504 35.6078 18.16H35.6318V19H36.6518ZM43.7171 18.976C43.5411 19.08 43.2971 19.132 42.9851 19.132C42.7211 19.132 42.5091 19.06 42.3491 18.916C42.1971 18.764 42.1211 18.52 42.1211 18.184C41.8411 18.52 41.5131 18.764 41.1371 18.916C40.7691 19.06 40.3691 19.132 39.9371 19.132C39.6571 19.132 39.3891 19.1 39.1331 19.036C38.8851 18.972 38.6691 18.872 38.4851 18.736C38.3011 18.6 38.1531 18.424 38.0411 18.208C37.9371 17.984 37.8851 17.716 37.8851 17.404C37.8851 17.052 37.9451 16.764 38.0651 16.54C38.1851 16.316 38.3411 16.136 38.5331 16C38.7331 15.856 38.9571 15.748 39.2051 15.676C39.4611 15.604 39.7211 15.544 39.9851 15.496C40.2651 15.44 40.5291 15.4 40.7771 15.376C41.0331 15.344 41.2571 15.304 41.4491 15.256C41.6411 15.2 41.7931 15.124 41.9051 15.028C42.0171 14.924 42.0731 14.776 42.0731 14.584C42.0731 14.36 42.0291 14.18 41.9411 14.044C41.8611 13.908 41.7531 13.804 41.6171 13.732C41.4891 13.66 41.3411 13.612 41.1731 13.588C41.0131 13.564 40.8531 13.552 40.6931 13.552C40.2611 13.552 39.9011 13.636 39.6131 13.804C39.3251 13.964 39.1691 14.272 39.1451 14.728H38.1251C38.1411 14.344 38.2211 14.02 38.3651 13.756C38.5091 13.492 38.7011 13.28 38.9411 13.12C39.1811 12.952 39.4531 12.832 39.7571 12.76C40.0691 12.688 40.4011 12.652 40.7531 12.652C41.0331 12.652 41.3091 12.672 41.5811 12.712C41.8611 12.752 42.1131 12.836 42.3371 12.964C42.5611 13.084 42.7411 13.256 42.8771 13.48C43.0131 13.704 43.0811 13.996 43.0811 14.356V17.548C43.0811 17.788 43.0931 17.964 43.1171 18.076C43.1491 18.188 43.2451 18.244 43.4051 18.244C43.4931 18.244 43.5971 18.224 43.7171 18.184V18.976ZM42.0611 15.796C41.9331 15.892 41.7651 15.964 41.5571 16.012C41.3491 16.052 41.1291 16.088 40.8971 16.12C40.6731 16.144 40.4451 16.176 40.2131 16.216C39.9811 16.248 39.7731 16.304 39.5891 16.384C39.4051 16.464 39.2531 16.58 39.1331 16.732C39.0211 16.876 38.9651 17.076 38.9651 17.332C38.9651 17.5 38.9971 17.644 39.0611 17.764C39.1331 17.876 39.2211 17.968 39.3251 18.04C39.4371 18.112 39.5651 18.164 39.7091 18.196C39.8531 18.228 40.0051 18.244 40.1651 18.244C40.5011 18.244 40.7891 18.2 41.0291 18.112C41.2691 18.016 41.4651 17.9 41.6171 17.764C41.7691 17.62 41.8811 17.468 41.9531 17.308C42.0251 17.14 42.0611 16.984 42.0611 16.84V15.796Z" fill="#3F474F"/>
<path d="M56 8C59.8673 8 63 11.1342 63 15C63 18.8666 59.8666 22 56 22C52.1342 22 49 18.8658 49 15C49 11.1342 52.1342 8 56 8ZM56 9.0011C52.6871 9.0011 50.0011 11.6879 50.0011 15C50.0011 18.3136 52.6871 20.9989 56 20.9989C59.3136 20.9989 61.9989 18.3136 61.9989 15C61.9989 11.6871 59.3144 9.0011 56 9.0011ZM55.973 17.847C56.2672 17.847 56.5067 18.0857 56.5067 18.3806C56.5067 18.6756 56.268 18.9143 55.973 18.9143C55.6781 18.9143 55.4386 18.6756 55.4386 18.3806C55.4386 18.0857 55.6781 17.847 55.973 17.847ZM56.2218 11.2705C57.477 11.2705 58.271 11.9443 58.3356 13.0763C58.3718 13.7232 58.1493 14.1822 57.6641 14.6904L57.0011 15.355C56.5337 15.8448 56.4351 16.0573 56.4351 16.4824V16.8975C56.4351 17.1739 56.2118 17.398 55.9345 17.398C55.6581 17.398 55.434 17.1739 55.434 16.8975V16.4816C55.434 15.6561 55.6827 15.2541 56.5167 14.4194C56.5221 14.4132 56.8586 14.0836 56.9403 13.9989L57.0365 13.8942C57.2729 13.6246 57.3523 13.4244 57.3369 13.1333C57.303 12.5558 56.9688 12.2724 56.2218 12.2724C55.5318 12.2724 55.1321 12.6844 55.0721 13.4883C55.052 13.764 54.8118 13.9712 54.5361 13.9504C54.2604 13.9296 54.0532 13.6893 54.074 13.4136C54.1711 12.1091 54.9827 11.2713 56.2226 11.2713L56.2218 11.2705Z" fill="#1A75CF"/>
</svg>
