<svg width="191" height="60" viewBox="0 0 191 60" fill="none" xmlns="http://www.w3.org/2000/svg">
<path d="M41.0078 31.2969C40.8932 32.5104 40.4453 33.4583 39.6641 34.1406C38.8828 34.8177 37.8438 35.1562 36.5469 35.1562C35.6406 35.1562 34.8411 34.9427 34.1484 34.5156C33.4609 34.0833 32.9297 33.4714 32.5547 32.6797C32.1797 31.888 31.9844 30.9688 31.9688 29.9219V28.8594C31.9688 27.7865 32.1589 26.8411 32.5391 26.0234C32.9193 25.2057 33.4635 24.5755 34.1719 24.1328C34.8854 23.6901 35.7083 23.4688 36.6406 23.4688C37.8958 23.4688 38.9062 23.8099 39.6719 24.4922C40.4375 25.1745 40.8828 26.138 41.0078 27.3828H39.0391C38.9453 26.5651 38.7057 25.9766 38.3203 25.6172C37.9401 25.2526 37.3802 25.0703 36.6406 25.0703C35.7812 25.0703 35.1198 25.3854 34.6562 26.0156C34.1979 26.6406 33.9635 27.5599 33.9531 28.7734V29.7812C33.9531 31.0104 34.1719 31.9479 34.6094 32.5938C35.0521 33.2396 35.6979 33.5625 36.5469 33.5625C37.3229 33.5625 37.9062 33.388 38.2969 33.0391C38.6875 32.6901 38.9349 32.1094 39.0391 31.2969H41.0078ZM42.2422 30.6953C42.2422 29.8672 42.4062 29.1224 42.7344 28.4609C43.0625 27.7943 43.5234 27.2839 44.1172 26.9297C44.7109 26.5703 45.3932 26.3906 46.1641 26.3906C47.3047 26.3906 48.2292 26.7578 48.9375 27.4922C49.651 28.2266 50.0365 29.2005 50.0938 30.4141L50.1016 30.8594C50.1016 31.6927 49.9401 32.4375 49.6172 33.0938C49.2995 33.75 48.8411 34.2578 48.2422 34.6172C47.6484 34.9766 46.9609 35.1562 46.1797 35.1562C44.987 35.1562 44.0312 34.7604 43.3125 33.9688C42.599 33.1719 42.2422 32.112 42.2422 30.7891V30.6953ZM44.1406 30.8594C44.1406 31.7292 44.3203 32.4115 44.6797 32.9062C45.0391 33.3958 45.5391 33.6406 46.1797 33.6406C46.8203 33.6406 47.3177 33.3906 47.6719 32.8906C48.0312 32.3906 48.2109 31.6589 48.2109 30.6953C48.2109 29.8411 48.026 29.1641 47.6562 28.6641C47.2917 28.1641 46.7943 27.9141 46.1641 27.9141C45.5443 27.9141 45.0521 28.1615 44.6875 28.6562C44.3229 29.1458 44.1406 29.8802 44.1406 30.8594ZM53.4688 26.5469L53.5234 27.5234C54.1484 26.7682 54.9688 26.3906 55.9844 26.3906C57.7448 26.3906 58.6406 27.3984 58.6719 29.4141V35H56.7734V29.5234C56.7734 28.987 56.6562 28.5911 56.4219 28.3359C56.1927 28.0755 55.8151 27.9453 55.2891 27.9453C54.5234 27.9453 53.9531 28.2917 53.5781 28.9844V35H51.6797V26.5469H53.4688ZM62.9922 24.4922V26.5469H64.4844V27.9531H62.9922V32.6719C62.9922 32.9948 63.0547 33.2292 63.1797 33.375C63.3099 33.5156 63.5391 33.5859 63.8672 33.5859C64.0859 33.5859 64.3073 33.5599 64.5312 33.5078V34.9766C64.099 35.0964 63.6823 35.1562 63.2812 35.1562C61.8229 35.1562 61.0938 34.3516 61.0938 32.7422V27.9531H59.7031V26.5469H61.0938V24.4922H62.9922ZM67.9609 35H66.0625V26.5469H67.9609V35ZM65.9453 24.3516C65.9453 24.0599 66.0365 23.8177 66.2188 23.625C66.4062 23.4323 66.6719 23.3359 67.0156 23.3359C67.3594 23.3359 67.625 23.4323 67.8125 23.625C68 23.8177 68.0938 24.0599 68.0938 24.3516C68.0938 24.638 68 24.8776 67.8125 25.0703C67.625 25.2578 67.3594 25.3516 67.0156 25.3516C66.6719 25.3516 66.4062 25.2578 66.2188 25.0703C66.0365 24.8776 65.9453 24.638 65.9453 24.3516ZM71.7969 26.5469L71.8516 27.5234C72.4766 26.7682 73.2969 26.3906 74.3125 26.3906C76.0729 26.3906 76.9688 27.3984 77 29.4141V35H75.1016V29.5234C75.1016 28.987 74.9844 28.5911 74.75 28.3359C74.5208 28.0755 74.1432 27.9453 73.6172 27.9453C72.8516 27.9453 72.2812 28.2917 71.9062 28.9844V35H70.0078V26.5469H71.7969ZM84.0625 34.1719C83.5052 34.8281 82.7135 35.1562 81.6875 35.1562C80.7708 35.1562 80.0755 34.888 79.6016 34.3516C79.1328 33.8151 78.8984 33.0391 78.8984 32.0234V26.5469H80.7969V32C80.7969 33.0729 81.2422 33.6094 82.1328 33.6094C83.0547 33.6094 83.6771 33.2786 84 32.6172V26.5469H85.8984V35H84.1094L84.0625 34.1719ZM92.8828 35C92.7995 34.8385 92.7266 34.5755 92.6641 34.2109C92.0599 34.8411 91.3203 35.1562 90.4453 35.1562C89.5964 35.1562 88.9036 34.9141 88.3672 34.4297C87.8307 33.9453 87.5625 33.3464 87.5625 32.6328C87.5625 31.7318 87.8958 31.0417 88.5625 30.5625C89.2344 30.0781 90.1927 29.8359 91.4375 29.8359H92.6016V29.2812C92.6016 28.8438 92.4792 28.4948 92.2344 28.2344C91.9896 27.9688 91.6172 27.8359 91.1172 27.8359C90.6849 27.8359 90.3307 27.9453 90.0547 28.1641C89.7786 28.3776 89.6406 28.651 89.6406 28.9844H87.7422C87.7422 28.5208 87.8958 28.0885 88.2031 27.6875C88.5104 27.2812 88.9271 26.9635 89.4531 26.7344C89.9844 26.5052 90.5755 26.3906 91.2266 26.3906C92.2161 26.3906 93.0052 26.6406 93.5938 27.1406C94.1823 27.6354 94.4844 28.3333 94.5 29.2344V33.0469C94.5 33.8073 94.6068 34.4141 94.8203 34.8672V35H92.8828ZM90.7969 33.6328C91.1719 33.6328 91.5234 33.5417 91.8516 33.3594C92.1849 33.1771 92.4349 32.9323 92.6016 32.625V31.0312H91.5781C90.875 31.0312 90.3464 31.1536 89.9922 31.3984C89.638 31.6432 89.4609 31.9896 89.4609 32.4375C89.4609 32.8021 89.5807 33.0938 89.8203 33.3125C90.0651 33.526 90.3906 33.6328 90.7969 33.6328ZM100.914 28.2812C100.664 28.2396 100.406 28.2188 100.141 28.2188C99.2708 28.2188 98.6849 28.5521 98.3828 29.2188V35H96.4844V26.5469H98.2969L98.3438 27.4922C98.8021 26.7578 99.4375 26.3906 100.25 26.3906C100.521 26.3906 100.745 26.4271 100.922 26.5L100.914 28.2812ZM109.82 35.1562C108.617 35.1562 107.641 34.7786 106.891 34.0234C106.146 33.263 105.773 32.2526 105.773 30.9922V30.7578C105.773 29.9141 105.935 29.1615 106.258 28.5C106.586 27.8333 107.044 27.3151 107.633 26.9453C108.221 26.5755 108.878 26.3906 109.602 26.3906C110.753 26.3906 111.641 26.7578 112.266 27.4922C112.896 28.2266 113.211 29.2656 113.211 30.6094V31.375H107.688C107.745 32.0729 107.977 32.625 108.383 33.0312C108.794 33.4375 109.31 33.6406 109.93 33.6406C110.799 33.6406 111.508 33.2891 112.055 32.5859L113.078 33.5625C112.74 34.0677 112.286 34.4609 111.719 34.7422C111.156 35.0182 110.523 35.1562 109.82 35.1562ZM109.594 27.9141C109.073 27.9141 108.651 28.0964 108.328 28.4609C108.01 28.8255 107.807 29.3333 107.719 29.9844H111.336V29.8438C111.294 29.2083 111.125 28.7292 110.828 28.4062C110.531 28.0781 110.12 27.9141 109.594 27.9141ZM116.453 26.5469L116.508 27.5234C117.133 26.7682 117.953 26.3906 118.969 26.3906C120.729 26.3906 121.625 27.3984 121.656 29.4141V35H119.758V29.5234C119.758 28.987 119.641 28.5911 119.406 28.3359C119.177 28.0755 118.799 27.9453 118.273 27.9453C117.508 27.9453 116.938 28.2917 116.562 28.9844V35H114.664V26.5469H116.453ZM136.688 32.1875L138.438 23.625H140.398L137.773 35H135.883L133.719 26.6953L131.508 35H129.609L126.984 23.625H128.945L130.711 32.1719L132.883 23.625H134.539L136.688 32.1875ZM148.492 29.9219H143.82V33.4219H149.281V35H141.844V23.625H149.227V25.2188H143.82V28.3594H148.492V29.9219ZM150.891 35V23.625H154.789C156.076 23.625 157.055 23.8828 157.727 24.3984C158.398 24.9141 158.734 25.6823 158.734 26.7031C158.734 27.224 158.594 27.6927 158.312 28.1094C158.031 28.526 157.62 28.849 157.078 29.0781C157.693 29.2448 158.167 29.5599 158.5 30.0234C158.839 30.4818 159.008 31.0339 159.008 31.6797C159.008 32.7474 158.664 33.5677 157.977 34.1406C157.294 34.7135 156.315 35 155.039 35H150.891ZM152.867 29.8672V33.4219H155.062C155.682 33.4219 156.167 33.2682 156.516 32.9609C156.865 32.6536 157.039 32.2266 157.039 31.6797C157.039 30.4974 156.435 29.8932 155.227 29.8672H152.867ZM152.867 28.4141H154.805C155.419 28.4141 155.898 28.276 156.242 28C156.591 27.7188 156.766 27.3229 156.766 26.8125C156.766 26.25 156.604 25.8438 156.281 25.5938C155.964 25.3438 155.466 25.2188 154.789 25.2188H152.867V28.4141Z" fill="#1A75CF"/>
<path d="M1 4C1 2.34315 2.34315 1 4 1H187C188.657 1 190 2.34315 190 4V56C190 57.6569 188.657 59 187 59H4C2.34314 59 1 57.6569 1 56V4Z" stroke="#1A75CF" stroke-width="2"/>
</svg>
