<svg width="191" height="60" viewBox="0 0 191 60" fill="none" xmlns="http://www.w3.org/2000/svg">
<path d="M1 4C1 2.34315 2.34315 1 4 1H187C188.657 1 190 2.34315 190 4V56C190 57.6569 188.657 59 187 59H4C2.34314 59 1 57.6569 1 56V4Z" fill="#1A75CF"/>
<path d="M15.3203 17.1061C15.3203 16.5919 15.3878 16.1969 15.5326 15.9218L29.9284 29.98L15.7359 44.0633C15.4937 43.7707 15.3203 43.3088 15.3203 42.7366V17.1061Z" fill="url(#paint0_linear)" stroke="white" stroke-width="0.580079" stroke-linecap="round" stroke-linejoin="round"/>
<path d="M34.9514 34.6092L30.3975 30.0904V29.9841L34.9156 25.5007L40.6 28.7239C41.3662 29.1583 41.6802 29.6869 41.6802 30.1532C41.6802 30.6189 41.367 31.1467 40.6029 31.5809L34.9514 34.6092Z" fill="url(#paint1_linear)" stroke="white" stroke-width="0.580079" stroke-linecap="round" stroke-linejoin="round"/>
<mask id="path-4-inside-1" fill="white">
<path d="M35.0162 34.8502L30.1074 29.9792L15.498 44.4762C16.0824 45.056 16.9005 45.056 17.9524 44.5921L35.0162 34.8502Z"/>
</mask>
<path d="M35.0162 34.8502L30.1074 29.9792L15.498 44.4762C16.0824 45.056 16.9005 45.056 17.9524 44.5921L35.0162 34.8502Z" fill="url(#paint2_linear)"/>
<path d="M34.6076 35.262C34.835 35.4876 35.2023 35.4862 35.428 35.2588C35.6536 35.0314 35.6522 34.6641 35.4248 34.4385L34.6076 35.262ZM30.1074 29.9792L30.516 29.5675C30.2899 29.3431 29.925 29.3431 29.6989 29.5675L30.1074 29.9792ZM15.498 44.4762L15.0895 44.0644C14.9797 44.1733 14.918 44.3215 14.918 44.4762C14.918 44.6308 14.9797 44.779 15.0895 44.8879L15.498 44.4762ZM17.9524 44.5921L18.1865 45.1229C18.2048 45.1148 18.2227 45.1058 18.24 45.0959L17.9524 44.5921ZM35.3038 35.354C35.582 35.1951 35.6788 34.8408 35.52 34.5626C35.3611 34.2844 35.0068 34.1876 34.7286 34.3465L35.3038 35.354ZM35.4248 34.4385L30.516 29.5675L29.6989 30.391L34.6076 35.262L35.4248 34.4385ZM29.6989 29.5675L15.0895 44.0644L15.9066 44.8879L30.516 30.391L29.6989 29.5675ZM15.0895 44.8879C15.9304 45.7223 17.056 45.6215 18.1865 45.1229L17.7184 44.0614C16.7451 44.4906 16.2345 44.3897 15.9066 44.0644L15.0895 44.8879ZM18.24 45.0959L35.3038 35.354L34.7286 34.3465L17.6648 44.0884L18.24 45.0959Z" fill="white" mask="url(#path-4-inside-1)"/>
<path d="M17.8112 15.7355C17.8116 15.7357 17.812 15.736 17.8124 15.7362L34.5397 25.1723L30.1066 29.5713L15.9296 15.616C16.1219 15.4862 16.3348 15.4113 16.5704 15.3946C16.908 15.3707 17.3192 15.4645 17.8112 15.7355Z" fill="url(#paint3_linear)" stroke="white" stroke-width="0.580079" stroke-linecap="round" stroke-linejoin="round"/>
<path opacity="0.2" d="M34.8993 34.7343L17.9524 44.2442C17.0174 44.8241 16.1993 44.7081 15.6149 44.2442L15.498 44.3602L15.6149 44.4762C16.1993 44.9401 17.0174 45.056 17.9524 44.4762L34.8993 34.7343Z" fill="white"/>
<path opacity="0.2" d="M15.4978 44.2442C15.1471 43.8963 15.0303 43.3164 15.0303 42.6205V42.7365C15.0303 43.4324 15.264 44.0123 15.6146 44.3602V44.2442H15.4978ZM40.7428 31.4869L34.899 34.7342L35.0159 34.8502L40.7428 31.6029C41.5609 31.139 41.9116 30.5591 41.9116 29.9792C41.9116 30.5591 41.4441 31.023 40.7428 31.4869Z" fill="white"/>
<path opacity="0.2" d="M17.9522 15.5983L40.7428 28.4715C41.4441 28.9354 41.9116 29.3993 41.9116 29.9792C41.9116 29.3993 41.5609 28.8194 40.7428 28.3555L17.9522 15.4823C16.3159 14.5545 15.0303 15.2503 15.0303 17.1059V17.2219C15.0303 15.4823 16.3159 14.6705 17.9522 15.5983Z" fill="url(#paint4_linear)"/>
<path d="M53.2041 35V23.625H56.5635C57.5687 23.625 58.4593 23.849 59.2354 24.2969C60.0166 24.7448 60.6208 25.3802 61.0479 26.2031C61.4749 27.026 61.6885 27.9688 61.6885 29.0312V29.6016C61.6885 30.6797 61.4723 31.6276 61.04 32.4453C60.613 33.263 60.001 33.8932 59.2041 34.3359C58.4124 34.7786 57.5036 35 56.4775 35H53.2041ZM55.1807 25.2188V33.4219H56.4697C57.5062 33.4219 58.3005 33.099 58.8525 32.4531C59.4098 31.8021 59.6937 30.8698 59.7041 29.6562V29.0234C59.7041 27.7891 59.4359 26.8464 58.8994 26.1953C58.363 25.5443 57.5843 25.2188 56.5635 25.2188H55.1807ZM67.1963 35.1562C65.9932 35.1562 65.0166 34.7786 64.2666 34.0234C63.5218 33.263 63.1494 32.2526 63.1494 30.9922V30.7578C63.1494 29.9141 63.3109 29.1615 63.6338 28.5C63.9619 27.8333 64.4202 27.3151 65.0088 26.9453C65.5973 26.5755 66.2536 26.3906 66.9775 26.3906C68.1286 26.3906 69.0166 26.7578 69.6416 27.4922C70.2718 28.2266 70.5869 29.2656 70.5869 30.6094V31.375H65.0635C65.1208 32.0729 65.3525 32.625 65.7588 33.0312C66.1702 33.4375 66.6859 33.6406 67.3057 33.6406C68.1755 33.6406 68.8838 33.2891 69.4307 32.5859L70.4541 33.5625C70.1156 34.0677 69.6624 34.4609 69.0947 34.7422C68.5322 35.0182 67.8994 35.1562 67.1963 35.1562ZM66.9697 27.9141C66.4489 27.9141 66.027 28.0964 65.7041 28.4609C65.3864 28.8255 65.1833 29.3333 65.0947 29.9844H68.7119V29.8438C68.6702 29.2083 68.501 28.7292 68.2041 28.4062C67.9072 28.0781 67.4958 27.9141 66.9697 27.9141ZM76.8057 32.7031C76.8057 32.3646 76.665 32.1068 76.3838 31.9297C76.1077 31.7526 75.6468 31.5964 75.001 31.4609C74.3551 31.3255 73.8161 31.1536 73.3838 30.9453C72.4359 30.487 71.9619 29.8229 71.9619 28.9531C71.9619 28.224 72.2692 27.6146 72.8838 27.125C73.4984 26.6354 74.2796 26.3906 75.2275 26.3906C76.238 26.3906 77.0531 26.6406 77.6729 27.1406C78.2979 27.6406 78.6104 28.2891 78.6104 29.0859H76.7119C76.7119 28.7214 76.5765 28.4193 76.3057 28.1797C76.0348 27.9349 75.6755 27.8125 75.2275 27.8125C74.8109 27.8125 74.4697 27.9089 74.2041 28.1016C73.9437 28.2943 73.8135 28.5521 73.8135 28.875C73.8135 29.1667 73.9359 29.3932 74.1807 29.5547C74.4255 29.7161 74.9202 29.8802 75.665 30.0469C76.4098 30.2083 76.9932 30.4036 77.415 30.6328C77.8421 30.8568 78.1572 31.1276 78.3604 31.4453C78.5687 31.763 78.6729 32.1484 78.6729 32.6016C78.6729 33.362 78.3577 33.9792 77.7275 34.4531C77.0973 34.9219 76.2718 35.1562 75.251 35.1562C74.5583 35.1562 73.9411 35.0312 73.3994 34.7812C72.8577 34.5312 72.4359 34.1875 72.1338 33.75C71.8317 33.3125 71.6807 32.8411 71.6807 32.3359H73.5244C73.5505 32.7839 73.7197 33.1302 74.0322 33.375C74.3447 33.6146 74.7588 33.7344 75.2744 33.7344C75.7744 33.7344 76.1546 33.6406 76.415 33.4531C76.6755 33.2604 76.8057 33.0104 76.8057 32.7031ZM83.8057 33.6406C84.2796 33.6406 84.6729 33.5026 84.9854 33.2266C85.2979 32.9505 85.4645 32.6094 85.4854 32.2031H87.2744C87.2536 32.7292 87.0895 33.2214 86.7822 33.6797C86.4749 34.1328 86.0583 34.4922 85.5322 34.7578C85.0062 35.0234 84.4385 35.1562 83.8291 35.1562C82.6468 35.1562 81.7093 34.7734 81.0166 34.0078C80.3239 33.2422 79.9775 32.1849 79.9775 30.8359V30.6406C79.9775 29.3542 80.3213 28.3255 81.0088 27.5547C81.6963 26.7786 82.6338 26.3906 83.8213 26.3906C84.8265 26.3906 85.6442 26.6849 86.2744 27.2734C86.9098 27.8568 87.2432 28.625 87.2744 29.5781H85.4854C85.4645 29.0938 85.2979 28.6953 84.9854 28.3828C84.6781 28.0703 84.2848 27.9141 83.8057 27.9141C83.1911 27.9141 82.7171 28.138 82.3838 28.5859C82.0505 29.0286 81.8812 29.7031 81.876 30.6094V30.9141C81.876 31.8307 82.04 32.5156 82.3682 32.9688C82.7015 33.4167 83.1807 33.6406 83.8057 33.6406ZM93.7588 35C93.6755 34.8385 93.6025 34.5755 93.54 34.2109C92.9359 34.8411 92.1963 35.1562 91.3213 35.1562C90.4723 35.1562 89.7796 34.9141 89.2432 34.4297C88.7067 33.9453 88.4385 33.3464 88.4385 32.6328C88.4385 31.7318 88.7718 31.0417 89.4385 30.5625C90.1104 30.0781 91.0687 29.8359 92.3135 29.8359H93.4775V29.2812C93.4775 28.8438 93.3551 28.4948 93.1104 28.2344C92.8656 27.9688 92.4932 27.8359 91.9932 27.8359C91.5609 27.8359 91.2067 27.9453 90.9307 28.1641C90.6546 28.3776 90.5166 28.651 90.5166 28.9844H88.6182C88.6182 28.5208 88.7718 28.0885 89.0791 27.6875C89.3864 27.2812 89.8031 26.9635 90.3291 26.7344C90.8604 26.5052 91.4515 26.3906 92.1025 26.3906C93.0921 26.3906 93.8812 26.6406 94.4697 27.1406C95.0583 27.6354 95.3604 28.3333 95.376 29.2344V33.0469C95.376 33.8073 95.4827 34.4141 95.6963 34.8672V35H93.7588ZM91.6729 33.6328C92.0479 33.6328 92.3994 33.5417 92.7275 33.3594C93.0609 33.1771 93.3109 32.9323 93.4775 32.625V31.0312H92.4541C91.751 31.0312 91.2223 31.1536 90.8682 31.3984C90.514 31.6432 90.3369 31.9896 90.3369 32.4375C90.3369 32.8021 90.4567 33.0938 90.6963 33.3125C90.9411 33.526 91.2666 33.6328 91.6729 33.6328ZM101.79 28.2812C101.54 28.2396 101.282 28.2188 101.017 28.2188C100.147 28.2188 99.5609 28.5521 99.2588 29.2188V35H97.3604V26.5469H99.1729L99.2197 27.4922C99.6781 26.7578 100.313 26.3906 101.126 26.3906C101.397 26.3906 101.621 26.4271 101.798 26.5L101.79 28.2812ZM102.501 30.7109C102.501 29.3984 102.808 28.3516 103.423 27.5703C104.043 26.7839 104.863 26.3906 105.884 26.3906C106.847 26.3906 107.605 26.7266 108.157 27.3984L108.243 26.5469H109.954V34.7422C109.954 35.8516 109.608 36.7266 108.915 37.3672C108.228 38.0078 107.298 38.3281 106.126 38.3281C105.506 38.3281 104.899 38.1979 104.306 37.9375C103.717 37.6823 103.269 37.3464 102.962 36.9297L103.86 35.7891C104.444 36.4818 105.162 36.8281 106.017 36.8281C106.647 36.8281 107.144 36.6562 107.509 36.3125C107.873 35.974 108.056 35.474 108.056 34.8125V34.2422C107.509 34.8516 106.78 35.1562 105.868 35.1562C104.879 35.1562 104.069 34.763 103.438 33.9766C102.813 33.1901 102.501 32.1016 102.501 30.7109ZM104.392 30.875C104.392 31.724 104.563 32.3932 104.907 32.8828C105.256 33.3672 105.738 33.6094 106.353 33.6094C107.118 33.6094 107.686 33.2812 108.056 32.625V28.9062C107.696 28.2656 107.134 27.9453 106.368 27.9453C105.743 27.9453 105.256 28.1927 104.907 28.6875C104.563 29.1823 104.392 29.9115 104.392 30.875ZM116.962 35C116.879 34.8385 116.806 34.5755 116.743 34.2109C116.139 34.8411 115.399 35.1562 114.524 35.1562C113.675 35.1562 112.983 34.9141 112.446 34.4297C111.91 33.9453 111.642 33.3464 111.642 32.6328C111.642 31.7318 111.975 31.0417 112.642 30.5625C113.313 30.0781 114.272 29.8359 115.517 29.8359H116.681V29.2812C116.681 28.8438 116.558 28.4948 116.313 28.2344C116.069 27.9688 115.696 27.8359 115.196 27.8359C114.764 27.8359 114.41 27.9453 114.134 28.1641C113.858 28.3776 113.72 28.651 113.72 28.9844H111.821C111.821 28.5208 111.975 28.0885 112.282 27.6875C112.59 27.2812 113.006 26.9635 113.532 26.7344C114.063 26.5052 114.655 26.3906 115.306 26.3906C116.295 26.3906 117.084 26.6406 117.673 27.1406C118.261 27.6354 118.563 28.3333 118.579 29.2344V33.0469C118.579 33.8073 118.686 34.4141 118.899 34.8672V35H116.962ZM114.876 33.6328C115.251 33.6328 115.603 33.5417 115.931 33.3594C116.264 33.1771 116.514 32.9323 116.681 32.625V31.0312H115.657C114.954 31.0312 114.425 31.1536 114.071 31.3984C113.717 31.6432 113.54 31.9896 113.54 32.4375C113.54 32.8021 113.66 33.0938 113.899 33.3125C114.144 33.526 114.47 33.6328 114.876 33.6328ZM124.993 28.2812C124.743 28.2396 124.485 28.2188 124.22 28.2188C123.35 28.2188 122.764 28.5521 122.462 29.2188V35H120.563V26.5469H122.376L122.423 27.4922C122.881 26.7578 123.517 26.3906 124.329 26.3906C124.6 26.3906 124.824 26.4271 125.001 26.5L124.993 28.2812ZM135.228 35C135.144 34.8385 135.071 34.5755 135.009 34.2109C134.405 34.8411 133.665 35.1562 132.79 35.1562C131.941 35.1562 131.248 34.9141 130.712 34.4297C130.175 33.9453 129.907 33.3464 129.907 32.6328C129.907 31.7318 130.241 31.0417 130.907 30.5625C131.579 30.0781 132.537 29.8359 133.782 29.8359H134.946V29.2812C134.946 28.8438 134.824 28.4948 134.579 28.2344C134.334 27.9688 133.962 27.8359 133.462 27.8359C133.03 27.8359 132.675 27.9453 132.399 28.1641C132.123 28.3776 131.985 28.651 131.985 28.9844H130.087C130.087 28.5208 130.241 28.0885 130.548 27.6875C130.855 27.2812 131.272 26.9635 131.798 26.7344C132.329 26.5052 132.92 26.3906 133.571 26.3906C134.561 26.3906 135.35 26.6406 135.938 27.1406C136.527 27.6354 136.829 28.3333 136.845 29.2344V33.0469C136.845 33.8073 136.951 34.4141 137.165 34.8672V35H135.228ZM133.142 33.6328C133.517 33.6328 133.868 33.5417 134.196 33.3594C134.53 33.1771 134.78 32.9323 134.946 32.625V31.0312H133.923C133.22 31.0312 132.691 31.1536 132.337 31.3984C131.983 31.6432 131.806 31.9896 131.806 32.4375C131.806 32.8021 131.925 33.0938 132.165 33.3125C132.41 33.526 132.735 33.6328 133.142 33.6328ZM146.235 30.8594C146.235 32.1667 145.938 33.2109 145.345 33.9922C144.751 34.7682 143.954 35.1562 142.954 35.1562C142.027 35.1562 141.285 34.8516 140.728 34.2422V38.25H138.829V26.5469H140.579L140.657 27.4062C141.215 26.7292 141.972 26.3906 142.931 26.3906C143.962 26.3906 144.769 26.776 145.353 27.5469C145.941 28.3125 146.235 29.3776 146.235 30.7422V30.8594ZM144.345 30.6953C144.345 29.8516 144.175 29.1823 143.837 28.6875C143.504 28.1927 143.024 27.9453 142.399 27.9453C141.623 27.9453 141.066 28.2656 140.728 28.9062V32.6562C141.071 33.3125 141.634 33.6406 142.415 33.6406C143.019 33.6406 143.491 33.3984 143.829 32.9141C144.173 32.4245 144.345 31.6849 144.345 30.6953ZM155.251 30.8594C155.251 32.1667 154.954 33.2109 154.36 33.9922C153.767 34.7682 152.97 35.1562 151.97 35.1562C151.043 35.1562 150.3 34.8516 149.743 34.2422V38.25H147.845V26.5469H149.595L149.673 27.4062C150.23 26.7292 150.988 26.3906 151.946 26.3906C152.978 26.3906 153.785 26.776 154.368 27.5469C154.957 28.3125 155.251 29.3776 155.251 30.7422V30.8594ZM153.36 30.6953C153.36 29.8516 153.191 29.1823 152.853 28.6875C152.519 28.1927 152.04 27.9453 151.415 27.9453C150.639 27.9453 150.082 28.2656 149.743 28.9062V32.6562C150.087 33.3125 150.649 33.6406 151.431 33.6406C152.035 33.6406 152.506 33.3984 152.845 32.9141C153.188 32.4245 153.36 31.6849 153.36 30.6953Z" fill="white"/>
<path d="M1 4C1 2.34315 2.34315 1 4 1H187C188.657 1 190 2.34315 190 4V56C190 57.6569 188.657 59 187 59H4C2.34314 59 1 57.6569 1 56V4Z" stroke="#1A75CF" stroke-width="2"/>
<defs>
<linearGradient id="paint0_linear" x1="22.6272" y1="15.4824" x2="22.6272" y2="44.4762" gradientUnits="userSpaceOnUse">
<stop offset="0.127048" stop-color="#1681EB"/>
<stop offset="1" stop-color="#025CB5"/>
</linearGradient>
<linearGradient id="paint1_linear" x1="36.0388" y1="25.1083" x2="36.0388" y2="34.9662" gradientUnits="userSpaceOnUse">
<stop offset="0.127048" stop-color="#1681EB"/>
<stop offset="1" stop-color="#025CB5"/>
</linearGradient>
<linearGradient id="paint2_linear" x1="25.2571" y1="29.9792" x2="25.2571" y2="44.9268" gradientUnits="userSpaceOnUse">
<stop offset="0.127048" stop-color="#1681EB"/>
<stop offset="1" stop-color="#025CB5"/>
</linearGradient>
<linearGradient id="paint3_linear" x1="25.2571" y1="15.101" x2="25.2571" y2="29.9791" gradientUnits="userSpaceOnUse">
<stop offset="0.127048" stop-color="#1681EB"/>
<stop offset="1" stop-color="#025CB5"/>
</linearGradient>
<linearGradient id="paint4_linear" x1="28.4709" y1="15.0731" x2="28.4709" y2="29.9792" gradientUnits="userSpaceOnUse">
<stop offset="0.127048" stop-color="#1681EB"/>
<stop offset="1" stop-color="#025CB5"/>
</linearGradient>
</defs>
</svg>
