<svg width="191" height="60" viewBox="0 0 191 60" fill="none" xmlns="http://www.w3.org/2000/svg">
<path d="M1 4C1 2.34315 2.34315 1 4 1H187C188.657 1 190 2.34315 190 4V56C190 57.6569 188.657 59 187 59H4C2.34314 59 1 57.6569 1 56V4Z" fill="#1A75CF"/>
<path d="M15.3201 17.1061C15.3201 16.5919 15.3876 16.1969 15.5324 15.9218L29.9282 29.98L15.7356 44.0633C15.4934 43.7707 15.3201 43.3088 15.3201 42.7366V17.1061Z" fill="url(#paint0_linear)" stroke="white" stroke-width="0.580079" stroke-linecap="round" stroke-linejoin="round"/>
<path d="M34.9511 34.6092L30.3972 30.0904V29.9841L34.9154 25.5007L40.5997 28.7239C41.366 29.1583 41.6799 29.6869 41.6799 30.1532C41.6799 30.6189 41.3668 31.1467 40.6027 31.5809L34.9511 34.6092Z" fill="url(#paint1_linear)" stroke="white" stroke-width="0.580079" stroke-linecap="round" stroke-linejoin="round"/>
<mask id="path-4-inside-1" fill="white">
<path d="M35.016 34.8502L30.1072 29.9792L15.4978 44.4762C16.0822 45.056 16.9003 45.056 17.9522 44.5921L35.016 34.8502Z"/>
</mask>
<path d="M35.016 34.8502L30.1072 29.9792L15.4978 44.4762C16.0822 45.056 16.9003 45.056 17.9522 44.5921L35.016 34.8502Z" fill="url(#paint2_linear)"/>
<path d="M34.6074 35.262C34.8348 35.4876 35.2021 35.4862 35.4277 35.2588C35.6534 35.0314 35.652 34.6641 35.4245 34.4385L34.6074 35.262ZM30.1072 29.9792L30.5158 29.5675C30.2896 29.3431 29.9248 29.3431 29.6986 29.5675L30.1072 29.9792ZM15.4978 44.4762L15.0892 44.0644C14.9795 44.1733 14.9177 44.3215 14.9177 44.4762C14.9177 44.6308 14.9795 44.779 15.0892 44.8879L15.4978 44.4762ZM17.9522 44.5921L18.1863 45.1229C18.2046 45.1148 18.2224 45.1058 18.2398 45.0959L17.9522 44.5921ZM35.3036 35.354C35.5818 35.1951 35.6786 34.8408 35.5197 34.5626C35.3609 34.2844 35.0066 34.1876 34.7284 34.3465L35.3036 35.354ZM35.4245 34.4385L30.5158 29.5675L29.6986 30.391L34.6074 35.262L35.4245 34.4385ZM29.6986 29.5675L15.0892 44.0644L15.9064 44.8879L30.5158 30.391L29.6986 29.5675ZM15.0892 44.8879C15.9301 45.7223 17.0558 45.6215 18.1863 45.1229L17.7181 44.0614C16.7449 44.4906 16.2342 44.3897 15.9064 44.0644L15.0892 44.8879ZM18.2398 45.0959L35.3036 35.354L34.7284 34.3465L17.6646 44.0884L18.2398 45.0959Z" fill="white" mask="url(#path-4-inside-1)"/>
<path d="M17.8109 15.7355C17.8113 15.7357 17.8117 15.736 17.8122 15.7362L34.5395 25.1723L30.1064 29.5713L15.9294 15.616C16.1217 15.4862 16.3345 15.4113 16.5702 15.3946C16.9078 15.3707 17.319 15.4645 17.8109 15.7355Z" fill="url(#paint3_linear)" stroke="white" stroke-width="0.580079" stroke-linecap="round" stroke-linejoin="round"/>
<path opacity="0.2" d="M34.8991 34.7343L17.9522 44.2442C17.0172 44.8241 16.1991 44.7081 15.6147 44.2442L15.4978 44.3602L15.6147 44.4762C16.1991 44.9401 17.0172 45.056 17.9522 44.4762L34.8991 34.7343Z" fill="white"/>
<path opacity="0.2" d="M15.4975 44.2442C15.1469 43.8963 15.03 43.3164 15.03 42.6205V42.7365C15.03 43.4324 15.2638 44.0123 15.6144 44.3602V44.2442H15.4975ZM40.7426 31.4869L34.8988 34.7342L35.0157 34.8502L40.7426 31.6029C41.5607 31.139 41.9113 30.5591 41.9113 29.9792C41.9113 30.5591 41.4438 31.023 40.7426 31.4869Z" fill="white"/>
<path opacity="0.2" d="M17.9519 15.5983L40.7426 28.4715C41.4438 28.9354 41.9113 29.3993 41.9113 29.9792C41.9113 29.3993 41.5607 28.8194 40.7426 28.3555L17.9519 15.4823C16.3157 14.5545 15.03 15.2503 15.03 17.1059V17.2219C15.03 15.4823 16.3157 14.6705 17.9519 15.5983Z" fill="url(#paint4_linear)"/>
<path d="M53.2043 35V23.625H56.5637C57.5689 23.625 58.4596 23.849 59.2356 24.2969C60.0168 24.7448 60.621 25.3802 61.0481 26.2031C61.4752 27.026 61.6887 27.9688 61.6887 29.0312V29.6016C61.6887 30.6797 61.4726 31.6276 61.0403 32.4453C60.6132 33.263 60.0012 33.8932 59.2043 34.3359C58.4127 34.7786 57.5038 35 56.4778 35H53.2043ZM55.1809 25.2188V33.4219H56.47C57.5064 33.4219 58.3007 33.099 58.8528 32.4531C59.4101 31.8021 59.6939 30.8698 59.7043 29.6562V29.0234C59.7043 27.7891 59.4361 26.8464 58.8997 26.1953C58.3632 25.5443 57.5846 25.2188 56.5637 25.2188H55.1809ZM67.1965 35.1562C65.9934 35.1562 65.0168 34.7786 64.2668 34.0234C63.5221 33.263 63.1497 32.2526 63.1497 30.9922V30.7578C63.1497 29.9141 63.3111 29.1615 63.634 28.5C63.9622 27.8333 64.4205 27.3151 65.009 26.9453C65.5976 26.5755 66.2538 26.3906 66.9778 26.3906C68.1288 26.3906 69.0168 26.7578 69.6418 27.4922C70.2721 28.2266 70.5872 29.2656 70.5872 30.6094V31.375H65.0637C65.121 32.0729 65.3528 32.625 65.759 33.0312C66.1705 33.4375 66.6861 33.6406 67.3059 33.6406C68.1757 33.6406 68.884 33.2891 69.4309 32.5859L70.4543 33.5625C70.1158 34.0677 69.6627 34.4609 69.095 34.7422C68.5325 35.0182 67.8997 35.1562 67.1965 35.1562ZM66.97 27.9141C66.4491 27.9141 66.0273 28.0964 65.7043 28.4609C65.3866 28.8255 65.1835 29.3333 65.095 29.9844H68.7122V29.8438C68.6705 29.2083 68.5012 28.7292 68.2043 28.4062C67.9075 28.0781 67.496 27.9141 66.97 27.9141ZM76.8059 32.7031C76.8059 32.3646 76.6653 32.1068 76.384 31.9297C76.108 31.7526 75.6471 31.5964 75.0012 31.4609C74.3554 31.3255 73.8163 31.1536 73.384 30.9453C72.4361 30.487 71.9622 29.8229 71.9622 28.9531C71.9622 28.224 72.2694 27.6146 72.884 27.125C73.4986 26.6354 74.2799 26.3906 75.2278 26.3906C76.2382 26.3906 77.0533 26.6406 77.6731 27.1406C78.2981 27.6406 78.6106 28.2891 78.6106 29.0859H76.7122C76.7122 28.7214 76.5767 28.4193 76.3059 28.1797C76.0351 27.9349 75.6757 27.8125 75.2278 27.8125C74.8111 27.8125 74.47 27.9089 74.2043 28.1016C73.9439 28.2943 73.8137 28.5521 73.8137 28.875C73.8137 29.1667 73.9361 29.3932 74.1809 29.5547C74.4257 29.7161 74.9205 29.8802 75.6653 30.0469C76.4101 30.2083 76.9934 30.4036 77.4153 30.6328C77.8424 30.8568 78.1575 31.1276 78.3606 31.4453C78.5689 31.763 78.6731 32.1484 78.6731 32.6016C78.6731 33.362 78.358 33.9792 77.7278 34.4531C77.0976 34.9219 76.2721 35.1562 75.2512 35.1562C74.5585 35.1562 73.9413 35.0312 73.3997 34.7812C72.858 34.5312 72.4361 34.1875 72.134 33.75C71.8319 33.3125 71.6809 32.8411 71.6809 32.3359H73.5247C73.5507 32.7839 73.72 33.1302 74.0325 33.375C74.345 33.6146 74.759 33.7344 75.2747 33.7344C75.7747 33.7344 76.1549 33.6406 76.4153 33.4531C76.6757 33.2604 76.8059 33.0104 76.8059 32.7031ZM83.8059 33.6406C84.2799 33.6406 84.6731 33.5026 84.9856 33.2266C85.2981 32.9505 85.4648 32.6094 85.4856 32.2031H87.2747C87.2538 32.7292 87.0898 33.2214 86.7825 33.6797C86.4752 34.1328 86.0585 34.4922 85.5325 34.7578C85.0064 35.0234 84.4387 35.1562 83.8293 35.1562C82.6471 35.1562 81.7096 34.7734 81.0168 34.0078C80.3241 33.2422 79.9778 32.1849 79.9778 30.8359V30.6406C79.9778 29.3542 80.3215 28.3255 81.009 27.5547C81.6965 26.7786 82.634 26.3906 83.8215 26.3906C84.8267 26.3906 85.6444 26.6849 86.2747 27.2734C86.9101 27.8568 87.2434 28.625 87.2747 29.5781H85.4856C85.4648 29.0938 85.2981 28.6953 84.9856 28.3828C84.6783 28.0703 84.2851 27.9141 83.8059 27.9141C83.1913 27.9141 82.7174 28.138 82.384 28.5859C82.0507 29.0286 81.8814 29.7031 81.8762 30.6094V30.9141C81.8762 31.8307 82.0403 32.5156 82.3684 32.9688C82.7017 33.4167 83.1809 33.6406 83.8059 33.6406ZM93.759 35C93.6757 34.8385 93.6028 34.5755 93.5403 34.2109C92.9361 34.8411 92.1965 35.1562 91.3215 35.1562C90.4726 35.1562 89.7799 34.9141 89.2434 34.4297C88.7069 33.9453 88.4387 33.3464 88.4387 32.6328C88.4387 31.7318 88.7721 31.0417 89.4387 30.5625C90.1106 30.0781 91.0689 29.8359 92.3137 29.8359H93.4778V29.2812C93.4778 28.8438 93.3554 28.4948 93.1106 28.2344C92.8658 27.9688 92.4934 27.8359 91.9934 27.8359C91.5611 27.8359 91.2069 27.9453 90.9309 28.1641C90.6549 28.3776 90.5168 28.651 90.5168 28.9844H88.6184C88.6184 28.5208 88.7721 28.0885 89.0793 27.6875C89.3866 27.2812 89.8033 26.9635 90.3293 26.7344C90.8606 26.5052 91.4517 26.3906 92.1028 26.3906C93.0924 26.3906 93.8814 26.6406 94.47 27.1406C95.0585 27.6354 95.3606 28.3333 95.3762 29.2344V33.0469C95.3762 33.8073 95.483 34.4141 95.6965 34.8672V35H93.759ZM91.6731 33.6328C92.0481 33.6328 92.3997 33.5417 92.7278 33.3594C93.0611 33.1771 93.3111 32.9323 93.4778 32.625V31.0312H92.4543C91.7512 31.0312 91.2226 31.1536 90.8684 31.3984C90.5142 31.6432 90.3372 31.9896 90.3372 32.4375C90.3372 32.8021 90.4569 33.0938 90.6965 33.3125C90.9413 33.526 91.2668 33.6328 91.6731 33.6328ZM101.79 28.2812C101.54 28.2396 101.282 28.2188 101.017 28.2188C100.147 28.2188 99.5611 28.5521 99.259 29.2188V35H97.3606V26.5469H99.1731L99.22 27.4922C99.6783 26.7578 100.314 26.3906 101.126 26.3906C101.397 26.3906 101.621 26.4271 101.798 26.5L101.79 28.2812ZM102.501 30.7109C102.501 29.3984 102.809 28.3516 103.423 27.5703C104.043 26.7839 104.863 26.3906 105.884 26.3906C106.848 26.3906 107.605 26.7266 108.157 27.3984L108.243 26.5469H109.954V34.7422C109.954 35.8516 109.608 36.7266 108.915 37.3672C108.228 38.0078 107.298 38.3281 106.126 38.3281C105.506 38.3281 104.9 38.1979 104.306 37.9375C103.717 37.6823 103.269 37.3464 102.962 36.9297L103.861 35.7891C104.444 36.4818 105.163 36.8281 106.017 36.8281C106.647 36.8281 107.144 36.6562 107.509 36.3125C107.874 35.974 108.056 35.474 108.056 34.8125V34.2422C107.509 34.8516 106.78 35.1562 105.868 35.1562C104.879 35.1562 104.069 34.763 103.439 33.9766C102.814 33.1901 102.501 32.1016 102.501 30.7109ZM104.392 30.875C104.392 31.724 104.564 32.3932 104.907 32.8828C105.256 33.3672 105.738 33.6094 106.353 33.6094C107.118 33.6094 107.686 33.2812 108.056 32.625V28.9062C107.697 28.2656 107.134 27.9453 106.368 27.9453C105.743 27.9453 105.256 28.1927 104.907 28.6875C104.564 29.1823 104.392 29.9115 104.392 30.875ZM116.962 35C116.879 34.8385 116.806 34.5755 116.743 34.2109C116.139 34.8411 115.4 35.1562 114.525 35.1562C113.676 35.1562 112.983 34.9141 112.447 34.4297C111.91 33.9453 111.642 33.3464 111.642 32.6328C111.642 31.7318 111.975 31.0417 112.642 30.5625C113.314 30.0781 114.272 29.8359 115.517 29.8359H116.681V29.2812C116.681 28.8438 116.559 28.4948 116.314 28.2344C116.069 27.9688 115.697 27.8359 115.197 27.8359C114.764 27.8359 114.41 27.9453 114.134 28.1641C113.858 28.3776 113.72 28.651 113.72 28.9844H111.822C111.822 28.5208 111.975 28.0885 112.282 27.6875C112.59 27.2812 113.006 26.9635 113.532 26.7344C114.064 26.5052 114.655 26.3906 115.306 26.3906C116.295 26.3906 117.085 26.6406 117.673 27.1406C118.262 27.6354 118.564 28.3333 118.579 29.2344V33.0469C118.579 33.8073 118.686 34.4141 118.9 34.8672V35H116.962ZM114.876 33.6328C115.251 33.6328 115.603 33.5417 115.931 33.3594C116.264 33.1771 116.514 32.9323 116.681 32.625V31.0312H115.657C114.954 31.0312 114.426 31.1536 114.072 31.3984C113.717 31.6432 113.54 31.9896 113.54 32.4375C113.54 32.8021 113.66 33.0938 113.9 33.3125C114.144 33.526 114.47 33.6328 114.876 33.6328ZM124.993 28.2812C124.743 28.2396 124.486 28.2188 124.22 28.2188C123.35 28.2188 122.764 28.5521 122.462 29.2188V35H120.564V26.5469H122.376L122.423 27.4922C122.881 26.7578 123.517 26.3906 124.329 26.3906C124.6 26.3906 124.824 26.4271 125.001 26.5L124.993 28.2812ZM135.228 35C135.144 34.8385 135.072 34.5755 135.009 34.2109C134.405 34.8411 133.665 35.1562 132.79 35.1562C131.941 35.1562 131.249 34.9141 130.712 34.4297C130.176 33.9453 129.907 33.3464 129.907 32.6328C129.907 31.7318 130.241 31.0417 130.907 30.5625C131.579 30.0781 132.538 29.8359 133.782 29.8359H134.947V29.2812C134.947 28.8438 134.824 28.4948 134.579 28.2344C134.335 27.9688 133.962 27.8359 133.462 27.8359C133.03 27.8359 132.676 27.9453 132.4 28.1641C132.124 28.3776 131.986 28.651 131.986 28.9844H130.087C130.087 28.5208 130.241 28.0885 130.548 27.6875C130.855 27.2812 131.272 26.9635 131.798 26.7344C132.329 26.5052 132.92 26.3906 133.572 26.3906C134.561 26.3906 135.35 26.6406 135.939 27.1406C136.527 27.6354 136.829 28.3333 136.845 29.2344V33.0469C136.845 33.8073 136.952 34.4141 137.165 34.8672V35H135.228ZM133.142 33.6328C133.517 33.6328 133.868 33.5417 134.197 33.3594C134.53 33.1771 134.78 32.9323 134.947 32.625V31.0312H133.923C133.22 31.0312 132.691 31.1536 132.337 31.3984C131.983 31.6432 131.806 31.9896 131.806 32.4375C131.806 32.8021 131.926 33.0938 132.165 33.3125C132.41 33.526 132.736 33.6328 133.142 33.6328ZM146.236 30.8594C146.236 32.1667 145.939 33.2109 145.345 33.9922C144.751 34.7682 143.954 35.1562 142.954 35.1562C142.027 35.1562 141.285 34.8516 140.728 34.2422V38.25H138.829V26.5469H140.579L140.657 27.4062C141.215 26.7292 141.973 26.3906 142.931 26.3906C143.962 26.3906 144.769 26.776 145.353 27.5469C145.941 28.3125 146.236 29.3776 146.236 30.7422V30.8594ZM144.345 30.6953C144.345 29.8516 144.176 29.1823 143.837 28.6875C143.504 28.1927 143.025 27.9453 142.4 27.9453C141.624 27.9453 141.066 28.2656 140.728 28.9062V32.6562C141.072 33.3125 141.634 33.6406 142.415 33.6406C143.019 33.6406 143.491 33.3984 143.829 32.9141C144.173 32.4245 144.345 31.6849 144.345 30.6953ZM155.251 30.8594C155.251 32.1667 154.954 33.2109 154.361 33.9922C153.767 34.7682 152.97 35.1562 151.97 35.1562C151.043 35.1562 150.301 34.8516 149.743 34.2422V38.25H147.845V26.5469H149.595L149.673 27.4062C150.23 26.7292 150.988 26.3906 151.947 26.3906C152.978 26.3906 153.785 26.776 154.368 27.5469C154.957 28.3125 155.251 29.3776 155.251 30.7422V30.8594ZM153.361 30.6953C153.361 29.8516 153.191 29.1823 152.853 28.6875C152.519 28.1927 152.04 27.9453 151.415 27.9453C150.639 27.9453 150.082 28.2656 149.743 28.9062V32.6562C150.087 33.3125 150.65 33.6406 151.431 33.6406C152.035 33.6406 152.506 33.3984 152.845 32.9141C153.189 32.4245 153.361 31.6849 153.361 30.6953Z" fill="white"/>
<path d="M1 4C1 2.34315 2.34315 1 4 1H187C188.657 1 190 2.34315 190 4V56C190 57.6569 188.657 59 187 59H4C2.34314 59 1 57.6569 1 56V4Z" stroke="#1A75CF" stroke-width="2"/>
<defs>
<linearGradient id="paint0_linear" x1="22.6269" y1="15.4824" x2="22.6269" y2="44.4762" gradientUnits="userSpaceOnUse">
<stop offset="0.127048" stop-color="#1681EB"/>
<stop offset="1" stop-color="#025CB5"/>
</linearGradient>
<linearGradient id="paint1_linear" x1="36.0386" y1="25.1083" x2="36.0386" y2="34.9662" gradientUnits="userSpaceOnUse">
<stop offset="0.127048" stop-color="#1681EB"/>
<stop offset="1" stop-color="#025CB5"/>
</linearGradient>
<linearGradient id="paint2_linear" x1="25.2569" y1="29.9792" x2="25.2569" y2="44.9268" gradientUnits="userSpaceOnUse">
<stop offset="0.127048" stop-color="#1681EB"/>
<stop offset="1" stop-color="#025CB5"/>
</linearGradient>
<linearGradient id="paint3_linear" x1="25.2569" y1="15.101" x2="25.2569" y2="29.9791" gradientUnits="userSpaceOnUse">
<stop offset="0.127048" stop-color="#1681EB"/>
<stop offset="1" stop-color="#025CB5"/>
</linearGradient>
<linearGradient id="paint4_linear" x1="28.4707" y1="15.0731" x2="28.4707" y2="29.9792" gradientUnits="userSpaceOnUse">
<stop offset="0.127048" stop-color="#1681EB"/>
<stop offset="1" stop-color="#025CB5"/>
</linearGradient>
</defs>
</svg>
