<svg width="305" height="46" viewBox="0 0 305 46" fill="none" xmlns="http://www.w3.org/2000/svg">
<rect width="305" height="46" rx="5" fill="#F8F9FA"/>
<path d="M33.3149 12.333C35.3235 12.333 36.9647 13.896 36.9647 15.81V27.038C36.9647 28.952 35.3246 30.514 33.3149 30.514H21.5234C19.5168 30.513 17.8746 28.951 17.8746 27.038V15.81C17.8746 13.896 19.5158 12.333 21.5244 12.333H33.3149ZM19.2396 19.262V27.038C19.2396 28.233 20.2686 29.214 21.5244 29.214H33.3149C34.5707 29.214 35.5997 28.234 35.5997 27.038V19.263L31.3304 22.655L34.5182 25.249C34.7754 25.459 34.829 25.813 34.6589 26.08L34.5938 26.166C34.3481 26.439 33.9176 26.471 33.6309 26.238L30.2667 23.5L27.857 25.415C27.6323 25.594 27.3162 25.614 27.0705 25.475L26.9823 25.415L24.5726 23.5L21.2084 26.238C20.9501 26.448 20.5752 26.442 20.3243 26.24L20.2455 26.166C20.0009 25.893 20.0355 25.483 20.3211 25.249L23.5089 22.655L19.2396 19.262ZM33.3149 13.632H21.5234C20.2707 13.633 19.2396 14.615 19.2396 15.811V17.57L27.4191 24.07L35.5986 17.57V15.81C35.5986 14.615 34.5696 13.634 33.3149 13.634V13.632Z" fill="#1A75CF"/>
<path d="M138.234 22.7422H133.305V26.7734H139.031V28H131.805V16.625H138.953V17.8594H133.305V21.5156H138.234V22.7422ZM143.68 23.7578H139.867V22.5781H143.68V23.7578ZM146.453 19.5469L146.492 20.4844C147.112 19.7552 147.948 19.3906 149 19.3906C150.182 19.3906 150.987 19.8438 151.414 20.75C151.695 20.3438 152.06 20.0156 152.508 19.7656C152.961 19.5156 153.495 19.3906 154.109 19.3906C155.964 19.3906 156.906 20.3724 156.938 22.3359V28H155.492V22.4219C155.492 21.8177 155.354 21.3672 155.078 21.0703C154.802 20.7682 154.339 20.6172 153.688 20.6172C153.151 20.6172 152.706 20.7786 152.352 21.1016C151.997 21.4193 151.792 21.849 151.734 22.3906V28H150.281V22.4609C150.281 21.2318 149.68 20.6172 148.477 20.6172C147.529 20.6172 146.88 21.0208 146.531 21.8281V28H145.086V19.5469H146.453ZM164.344 28C164.26 27.8333 164.193 27.5365 164.141 27.1094C163.469 27.8073 162.667 28.1562 161.734 28.1562C160.901 28.1562 160.216 27.9219 159.68 27.4531C159.148 26.9792 158.883 26.3802 158.883 25.6562C158.883 24.776 159.216 24.0938 159.883 23.6094C160.555 23.1198 161.497 22.875 162.711 22.875H164.117V22.2109C164.117 21.7057 163.966 21.3047 163.664 21.0078C163.362 20.7057 162.917 20.5547 162.328 20.5547C161.812 20.5547 161.38 20.6849 161.031 20.9453C160.682 21.2057 160.508 21.5208 160.508 21.8906H159.055C159.055 21.4688 159.203 21.0625 159.5 20.6719C159.802 20.276 160.208 19.9635 160.719 19.7344C161.234 19.5052 161.799 19.3906 162.414 19.3906C163.388 19.3906 164.151 19.6354 164.703 20.125C165.255 20.6094 165.542 21.2786 165.562 22.1328V26.0234C165.562 26.7995 165.661 27.4167 165.859 27.875V28H164.344ZM161.945 26.8984C162.398 26.8984 162.828 26.7812 163.234 26.5469C163.641 26.3125 163.935 26.0078 164.117 25.6328V23.8984H162.984C161.214 23.8984 160.328 24.4167 160.328 25.4531C160.328 25.9062 160.479 26.2604 160.781 26.5156C161.083 26.7708 161.471 26.8984 161.945 26.8984ZM169.398 28H167.953V19.5469H169.398V28ZM167.836 17.3047C167.836 17.0703 167.906 16.8724 168.047 16.7109C168.193 16.5495 168.406 16.4688 168.688 16.4688C168.969 16.4688 169.182 16.5495 169.328 16.7109C169.474 16.8724 169.547 17.0703 169.547 17.3047C169.547 17.5391 169.474 17.7344 169.328 17.8906C169.182 18.0469 168.969 18.125 168.688 18.125C168.406 18.125 168.193 18.0469 168.047 17.8906C167.906 17.7344 167.836 17.5391 167.836 17.3047ZM173.289 28H171.844V16H173.289V28Z" fill="#3F474F"/>
</svg>
