<svg width="21" height="21" viewBox="0 0 21 21" fill="none" xmlns="http://www.w3.org/2000/svg">
<g clip-path="url(#clip0)">
<path d="M20.2069 8.67436L11.6413 8.67395C11.263 8.67395 10.9564 8.9805 10.9564 9.35875V12.0951C10.9564 12.4733 11.263 12.7799 11.6412 12.7799H16.4649C15.9367 14.1507 14.9508 15.2987 13.6931 16.0281L15.7499 19.5886C19.0492 17.6804 20.9998 14.3324 20.9998 10.5845C20.9998 10.0508 20.9605 9.66932 20.8818 9.23976C20.822 8.9134 20.5387 8.67436 20.2069 8.67436Z" fill="#167EE6"/>
<path d="M10.5001 16.8914C8.1395 16.8914 6.07871 15.6016 4.9719 13.693L1.4115 15.7452C3.22336 18.8854 6.61757 21.0001 10.5001 21.0001C12.4048 21.0001 14.2019 20.4872 15.7501 19.5935V19.5887L13.6933 16.0281C12.7525 16.5738 11.6638 16.8914 10.5001 16.8914Z" fill="#12B347"/>
<path d="M15.75 19.5934V19.5885L13.6932 16.028C12.7524 16.5736 11.6637 16.8912 10.5 16.8912V20.9999C12.4046 20.9999 14.2019 20.4871 15.75 19.5934Z" fill="#0F993E"/>
<path d="M4.1087 10.5C4.1087 9.33642 4.42624 8.24783 4.97179 7.30706L1.41139 5.25488C0.512777 6.79818 0 8.59047 0 10.5C0 12.4095 0.512777 14.2018 1.41139 15.7451L4.97179 13.6929C4.42624 12.7522 4.1087 11.6636 4.1087 10.5Z" fill="#FFD500"/>
<path d="M10.5001 4.1087C12.0395 4.1087 13.4534 4.65568 14.5579 5.56553C14.8303 5.78997 15.2263 5.77377 15.4759 5.52419L17.4147 3.58538C17.6979 3.30221 17.6777 2.83869 17.3752 2.57627C15.5248 0.970963 13.1172 0 10.5001 0C6.61757 0 3.22336 2.11464 1.4115 5.25488L4.9719 7.30706C6.07871 5.39848 8.1395 4.1087 10.5001 4.1087Z" fill="#FF4B26"/>
<path d="M14.5578 5.56553C14.8302 5.78997 15.2263 5.77377 15.4758 5.52419L17.4146 3.58538C17.6978 3.30221 17.6776 2.83869 17.3751 2.57627C15.5247 0.970922 13.1171 0 10.5 0V4.1087C12.0393 4.1087 13.4533 4.65568 14.5578 5.56553Z" fill="#D93F21"/>
</g>
<defs>
<clipPath id="clip0">
<rect width="21" height="21" fill="white"/>
</clipPath>
</defs>
</svg>
