<svg width="305" height="46" viewBox="0 0 305 46" fill="none" xmlns="http://www.w3.org/2000/svg">
<rect width="305" height="46" rx="5" fill="#F8F9FA"/>
<g clip-path="url(#clip0)">
<path d="M37.2069 19.6744L28.6413 19.674C28.263 19.674 27.9564 19.9805 27.9564 20.3587V23.0951C27.9564 23.4733 28.263 23.7799 28.6412 23.7799H33.4649C32.9367 25.1507 31.9508 26.2987 30.6931 27.0281L32.7499 30.5886C36.0492 28.6804 37.9998 25.3324 37.9998 21.5845C37.9998 21.0508 37.9605 20.6693 37.8818 20.2398C37.822 19.9134 37.5387 19.6744 37.2069 19.6744Z" fill="#167EE6"/>
<path d="M27.5001 27.8914C25.1395 27.8914 23.0787 26.6016 21.9719 24.693L18.4115 26.7452C20.2234 29.8854 23.6176 32.0001 27.5001 32.0001C29.4048 32.0001 31.2019 31.4872 32.7501 30.5935V30.5887L30.6933 27.0281C29.7525 27.5738 28.6638 27.8914 27.5001 27.8914Z" fill="#12B347"/>
<path d="M32.75 30.5934V30.5885L30.6932 27.028C29.7524 27.5736 28.6637 27.8912 27.5 27.8912V31.9999C29.4046 31.9999 31.2019 31.4871 32.75 30.5934Z" fill="#0F993E"/>
<path d="M21.1087 21.5C21.1087 20.3364 21.4262 19.2478 21.9718 18.3071L18.4114 16.2549C17.5128 17.7982 17 19.5905 17 21.5C17 23.4095 17.5128 25.2018 18.4114 26.7451L21.9718 24.6929C21.4262 23.7522 21.1087 22.6636 21.1087 21.5Z" fill="#FFD500"/>
<path d="M27.5001 15.1087C29.0395 15.1087 30.4534 15.6557 31.5579 16.5655C31.8303 16.79 32.2263 16.7738 32.4759 16.5242L34.4147 14.5854C34.6979 14.3022 34.6777 13.8387 34.3752 13.5763C32.5248 11.971 30.1172 11 27.5001 11C23.6176 11 20.2234 13.1146 18.4115 16.2549L21.9719 18.3071C23.0787 16.3985 25.1395 15.1087 27.5001 15.1087Z" fill="#FF4B26"/>
<path d="M31.5578 16.5655C31.8302 16.79 32.2263 16.7738 32.4758 16.5242L34.4146 14.5854C34.6978 14.3022 34.6776 13.8387 34.3751 13.5763C32.5247 11.9709 30.1171 11 27.5 11V15.1087C29.0393 15.1087 30.4533 15.6557 31.5578 16.5655Z" fill="#D93F21"/>
</g>
<path d="M136.961 26.5078C136.576 27.0599 136.036 27.474 135.344 27.75C134.656 28.0208 133.854 28.1562 132.938 28.1562C132.01 28.1562 131.188 27.9401 130.469 27.5078C129.75 27.0703 129.193 26.4505 128.797 25.6484C128.406 24.8464 128.206 23.9167 128.195 22.8594V21.8672C128.195 20.1536 128.594 18.8255 129.391 17.8828C130.193 16.9401 131.318 16.4688 132.766 16.4688C133.953 16.4688 134.909 16.7734 135.633 17.3828C136.357 17.987 136.799 18.8464 136.961 19.9609H135.461C135.18 18.4557 134.284 17.7031 132.773 17.7031C131.768 17.7031 131.005 18.0573 130.484 18.7656C129.969 19.4688 129.708 20.4896 129.703 21.8281V22.7578C129.703 24.0339 129.995 25.0495 130.578 25.8047C131.161 26.5547 131.951 26.9297 132.945 26.9297C133.508 26.9297 134 26.8672 134.422 26.7422C134.844 26.6172 135.193 26.4062 135.469 26.1094V23.5547H132.836V22.3359H136.961V26.5078ZM138.859 23.6953C138.859 22.8672 139.021 22.1224 139.344 21.4609C139.672 20.7995 140.125 20.2891 140.703 19.9297C141.286 19.5703 141.951 19.3906 142.695 19.3906C143.846 19.3906 144.776 19.7891 145.484 20.5859C146.198 21.3828 146.555 22.4427 146.555 23.7656V23.8672C146.555 24.6901 146.396 25.4297 146.078 26.0859C145.766 26.737 145.315 27.2448 144.727 27.6094C144.143 27.974 143.471 28.1562 142.711 28.1562C141.565 28.1562 140.635 27.7578 139.922 26.9609C139.214 26.1641 138.859 25.1094 138.859 23.7969V23.6953ZM140.312 23.8672C140.312 24.8047 140.529 25.5573 140.961 26.125C141.398 26.6927 141.982 26.9766 142.711 26.9766C143.445 26.9766 144.029 26.6901 144.461 26.1172C144.893 25.5391 145.109 24.7318 145.109 23.6953C145.109 22.7682 144.888 22.0182 144.445 21.4453C144.008 20.8672 143.424 20.5781 142.695 20.5781C141.982 20.5781 141.406 20.862 140.969 21.4297C140.531 21.9974 140.312 22.8099 140.312 23.8672ZM147.984 23.6953C147.984 22.8672 148.146 22.1224 148.469 21.4609C148.797 20.7995 149.25 20.2891 149.828 19.9297C150.411 19.5703 151.076 19.3906 151.82 19.3906C152.971 19.3906 153.901 19.7891 154.609 20.5859C155.323 21.3828 155.68 22.4427 155.68 23.7656V23.8672C155.68 24.6901 155.521 25.4297 155.203 26.0859C154.891 26.737 154.44 27.2448 153.852 27.6094C153.268 27.974 152.596 28.1562 151.836 28.1562C150.69 28.1562 149.76 27.7578 149.047 26.9609C148.339 26.1641 147.984 25.1094 147.984 23.7969V23.6953ZM149.438 23.8672C149.438 24.8047 149.654 25.5573 150.086 26.125C150.523 26.6927 151.107 26.9766 151.836 26.9766C152.57 26.9766 153.154 26.6901 153.586 26.1172C154.018 25.5391 154.234 24.7318 154.234 23.6953C154.234 22.7682 154.013 22.0182 153.57 21.4453C153.133 20.8672 152.549 20.5781 151.82 20.5781C151.107 20.5781 150.531 20.862 150.094 21.4297C149.656 21.9974 149.438 22.8099 149.438 23.8672ZM157.148 23.7031C157.148 22.3854 157.453 21.3385 158.062 20.5625C158.672 19.7812 159.479 19.3906 160.484 19.3906C161.516 19.3906 162.32 19.7552 162.898 20.4844L162.969 19.5469H164.289V27.7969C164.289 28.8906 163.964 29.7526 163.312 30.3828C162.667 31.013 161.797 31.3281 160.703 31.3281C160.094 31.3281 159.497 31.1979 158.914 30.9375C158.331 30.6771 157.885 30.3203 157.578 29.8672L158.328 29C158.948 29.7656 159.706 30.1484 160.602 30.1484C161.305 30.1484 161.852 29.9505 162.242 29.5547C162.638 29.1589 162.836 28.6016 162.836 27.8828V27.1562C162.258 27.8229 161.469 28.1562 160.469 28.1562C159.479 28.1562 158.677 27.7578 158.062 26.9609C157.453 26.1641 157.148 25.0781 157.148 23.7031ZM158.602 23.8672C158.602 24.8203 158.797 25.5703 159.188 26.1172C159.578 26.6589 160.125 26.9297 160.828 26.9297C161.74 26.9297 162.409 26.5156 162.836 25.6875V21.8281C162.393 21.0208 161.729 20.6172 160.844 20.6172C160.141 20.6172 159.591 20.8906 159.195 21.4375C158.799 21.9844 158.602 22.7943 158.602 23.8672ZM168.047 28H166.602V16H168.047V28ZM173.875 28.1562C172.729 28.1562 171.797 27.7812 171.078 27.0312C170.359 26.276 170 25.2682 170 24.0078V23.7422C170 22.9036 170.159 22.1562 170.477 21.5C170.799 20.8385 171.247 20.3229 171.82 19.9531C172.398 19.5781 173.023 19.3906 173.695 19.3906C174.794 19.3906 175.648 19.7526 176.258 20.4766C176.867 21.2005 177.172 22.237 177.172 23.5859V24.1875H171.445C171.466 25.0208 171.708 25.6953 172.172 26.2109C172.641 26.7214 173.234 26.9766 173.953 26.9766C174.464 26.9766 174.896 26.8724 175.25 26.6641C175.604 26.4557 175.914 26.1797 176.18 25.8359L177.062 26.5234C176.354 27.612 175.292 28.1562 173.875 28.1562ZM173.695 20.5781C173.112 20.5781 172.622 20.7917 172.227 21.2188C171.831 21.6406 171.586 22.2344 171.492 23H175.727V22.8906C175.685 22.1562 175.487 21.5885 175.133 21.1875C174.779 20.7812 174.299 20.5781 173.695 20.5781Z" fill="#3F474F"/>
<defs>
<clipPath id="clip0">
<rect width="21" height="21" fill="white" transform="translate(17 11)"/>
</clipPath>
</defs>
</svg>
