<svg width="82" height="33" viewBox="0 0 82 33" fill="none" xmlns="http://www.w3.org/2000/svg">
<path fill-rule="evenodd" clip-rule="evenodd" d="M13.4545 16.6259C11.2524 20.8174 6.48971 22.4122 2.35182 20.1784C5.0097 15.1181 7.66757 10.0577 10.3254 4.99729C12.5275 0.805862 17.2902 -0.788926 21.4281 1.4448L13.4545 16.6259ZM9.11686 4.4248L5.1326 12.0154C0.989593 9.78676 -0.577478 4.57815 1.61949 0.386719L9.11686 4.4248Z" fill="#1A75CF"/>
<path d="M27.4927 26.9654L21.4282 16.3038C21.6612 16.2633 22.0628 16.2229 22.6411 16.1743C23.2195 16.1339 23.854 16.1096 24.5528 16.1096C25.099 16.1096 25.6372 16.1339 26.1674 16.1743C26.6975 16.2148 27.0429 16.2552 27.2116 16.3038L30.3121 22.5729L33.4126 16.3038C33.5813 16.2633 33.9026 16.2229 34.3765 16.1743C34.8504 16.1339 35.3645 16.1096 35.9107 16.1096C36.6095 16.1096 37.228 16.1339 37.7742 16.1743C38.3204 16.2148 38.714 16.2552 38.947 16.3038L32.8504 26.9654V32.725C32.3042 32.8059 31.8061 32.8706 31.3644 32.9191C30.9226 32.9596 30.5209 32.9838 30.1595 32.9838C29.798 32.9838 29.4044 32.9596 28.9546 32.9191C28.5128 32.8787 28.0309 32.814 27.5007 32.725V26.9654H27.4927ZM40.5454 16.3038C41.0113 16.1986 41.4692 16.1258 41.919 16.0773C42.3688 16.0368 42.8106 16.0125 43.2283 16.0125C43.6299 16.0125 44.0636 16.0368 44.5215 16.0773C44.9874 16.1177 45.4372 16.1905 45.879 16.3038V32.725C45.3328 32.8059 44.8348 32.8706 44.393 32.9191C43.9512 32.9596 43.5496 32.9838 43.1881 32.9838C42.8267 32.9838 42.4331 32.9596 41.9832 32.9191C41.5415 32.8787 41.0595 32.814 40.5294 32.725V16.3038H40.5454ZM49.4293 17.0965C50.1683 16.8457 51.0519 16.595 52.08 16.3523C53.1162 16.1096 54.4175 15.9883 55.9999 15.9883C56.8674 15.9883 57.7188 16.0611 58.5622 16.1986C59.4056 16.3361 60.1848 16.6192 60.8996 17.0399C61.4459 16.7649 62.0884 16.5222 62.8274 16.3119C63.5664 16.1015 64.3938 15.9964 65.3255 15.9964C66.1448 15.9964 66.9963 16.0773 67.8718 16.239C68.7473 16.4008 69.5345 16.7325 70.2414 17.2421C70.9482 17.7517 71.5266 18.4798 71.9764 19.4343C72.4262 20.3888 72.6591 21.6508 72.6591 23.2201V32.7331C72.1129 32.8382 71.6149 32.911 71.1731 32.9434C70.7314 32.9757 70.3378 32.9919 70.0004 32.9919C69.6389 32.9919 69.2454 32.9757 68.7955 32.9434C68.3538 32.911 67.8557 32.8463 67.3095 32.7331V23.7863C67.3095 22.6619 67.1168 21.853 66.7392 21.3676C66.3617 20.8823 65.7352 20.6396 64.8757 20.6396C64.5785 20.6396 64.2893 20.672 64.0082 20.7367C63.7271 20.8014 63.5263 20.8499 63.4218 20.8985C63.6146 21.6427 63.703 22.4921 63.703 23.4466V32.7412C63.1568 32.8463 62.6587 32.9191 62.217 32.9515C61.7752 32.9838 61.3816 33 61.0442 33C60.6828 33 60.2892 32.9838 59.8394 32.9515C59.3976 32.9191 58.8996 32.8544 58.3534 32.7412V23.7944C58.3534 22.67 58.1766 21.8611 57.8152 21.3757C57.4537 20.8904 56.8433 20.6477 55.9838 20.6477C55.7508 20.6477 55.5018 20.672 55.2448 20.7124C54.9797 20.7529 54.8191 20.7933 54.7548 20.8418V32.7412C54.2086 32.8463 53.7106 32.9191 53.2688 32.9515C52.827 32.9838 52.4335 33 52.0961 33C51.7346 33 51.341 32.9838 50.8912 32.9515C50.4494 32.9191 49.9514 32.8544 49.4052 32.7412V17.1127L49.4293 17.0965ZM76.0408 16.3038C76.5067 16.1986 76.9645 16.1258 77.4143 16.0773C77.8642 16.0368 78.3059 16.0125 78.7236 16.0125C79.1253 16.0125 79.559 16.0368 80.0169 16.0773C80.4827 16.1177 80.9326 16.1905 81.3743 16.3038V32.725C80.8281 32.8059 80.3301 32.8706 79.8883 32.9191C79.4466 32.9596 79.0449 32.9838 78.6835 32.9838C78.322 32.9838 77.9284 32.9596 77.4786 32.9191C77.0368 32.8787 76.5549 32.814 76.0247 32.725V16.3038H76.0408Z" fill="#1A75CF"/>
</svg>
