<svg width="27" height="30" viewBox="0 0 27 30" fill="none" xmlns="http://www.w3.org/2000/svg">
<path d="M0.320069 2.10607C0.320069 1.59192 0.387596 1.19685 0.53237 0.921843L14.9282 14.98L0.735645 29.0633C0.493422 28.7707 0.320069 28.3088 0.320069 27.7366V2.10607Z" fill="url(#paint0_linear)" stroke="white" stroke-width="0.580079" stroke-linecap="round" stroke-linejoin="round"/>
<path d="M19.9511 19.6092L15.3972 15.0904V14.9841L19.9154 10.5007L25.5997 13.7239C26.366 14.1583 26.6799 14.6869 26.6799 15.1532C26.6799 15.6189 26.3668 16.1467 25.6027 16.5809L19.9511 19.6092Z" fill="url(#paint1_linear)" stroke="white" stroke-width="0.580079" stroke-linecap="round" stroke-linejoin="round"/>
<mask id="path-3-inside-1" fill="white">
<path d="M20.016 19.8502L15.1072 14.9792L0.497803 29.4762C1.08218 30.056 1.90031 30.056 2.95218 29.5921L20.016 19.8502Z"/>
</mask>
<path d="M20.016 19.8502L15.1072 14.9792L0.497803 29.4762C1.08218 30.056 1.90031 30.056 2.95218 29.5921L20.016 19.8502Z" fill="url(#paint2_linear)"/>
<path d="M19.6074 20.262C19.8348 20.4876 20.2021 20.4862 20.4277 20.2588C20.6534 20.0314 20.652 19.6641 20.4245 19.4385L19.6074 20.262ZM15.1072 14.9792L15.5158 14.5675C15.2896 14.3431 14.9248 14.3431 14.6986 14.5675L15.1072 14.9792ZM0.497803 29.4762L0.0892131 29.0644C-0.0205439 29.1733 -0.0822763 29.3215 -0.0822763 29.4762C-0.0822763 29.6308 -0.0205439 29.779 0.0892131 29.8879L0.497803 29.4762ZM2.95218 29.5921L3.18626 30.1229C3.20455 30.1148 3.22242 30.1058 3.23979 30.0959L2.95218 29.5921ZM20.3036 20.354C20.5818 20.1951 20.6786 19.8408 20.5197 19.5626C20.3609 19.2844 20.0066 19.1876 19.7284 19.3465L20.3036 20.354ZM20.4245 19.4385L15.5158 14.5675L14.6986 15.391L19.6074 20.262L20.4245 19.4385ZM14.6986 14.5675L0.0892131 29.0644L0.906392 29.8879L15.5158 15.391L14.6986 14.5675ZM0.0892131 29.8879C0.930111 30.7223 2.05576 30.6215 3.18626 30.1229L2.71811 29.0614C1.74485 29.4906 1.23425 29.3897 0.906392 29.0644L0.0892131 29.8879ZM3.23979 30.0959L20.3036 20.354L19.7284 19.3465L2.66458 29.0884L3.23979 30.0959Z" fill="white" mask="url(#path-3-inside-1)"/>
<path d="M2.81093 0.735518C2.81134 0.735742 2.81175 0.735967 2.81216 0.736192L19.5395 10.1723L15.1064 14.5713L0.92938 0.616012C1.1217 0.486203 1.33453 0.411289 1.57019 0.394586C1.90777 0.370659 2.31897 0.464528 2.81093 0.735518Z" fill="url(#paint3_linear)" stroke="white" stroke-width="0.580079" stroke-linecap="round" stroke-linejoin="round"/>
<path opacity="0.2" d="M19.8991 19.7343L2.95218 29.2442C2.01718 29.8241 1.19905 29.7081 0.614678 29.2442L0.497803 29.3602L0.614678 29.4762C1.19905 29.9401 2.01718 30.056 2.95218 29.4762L19.8991 19.7343Z" fill="white"/>
<path opacity="0.2" d="M0.497529 29.2442C0.146904 28.8963 0.0300293 28.3164 0.0300293 27.6205V27.7365C0.0300293 28.4324 0.26378 29.0123 0.614405 29.3602V29.2442H0.497529ZM25.7426 16.4869L19.8988 19.7342L20.0157 19.8502L25.7426 16.6029C26.5607 16.139 26.9113 15.5591 26.9113 14.9792C26.9113 15.5591 26.4438 16.023 25.7426 16.4869Z" fill="white"/>
<path opacity="0.2" d="M2.95191 0.598267L25.7426 13.4715C26.4438 13.9354 26.9113 14.3993 26.9113 14.9792C26.9113 14.3993 26.5607 13.8194 25.7426 13.3555L2.95191 0.482292C1.31566 -0.44551 0.0300293 0.250341 0.0300293 2.10594V2.22192C0.0300293 0.482291 1.31566 -0.329535 2.95191 0.598267Z" fill="url(#paint4_linear)"/>
<defs>
<linearGradient id="paint0_linear" x1="7.62691" y1="0.482422" x2="7.62691" y2="29.4762" gradientUnits="userSpaceOnUse">
<stop offset="0.127048" stop-color="#1681EB"/>
<stop offset="1" stop-color="#025CB5"/>
</linearGradient>
<linearGradient id="paint1_linear" x1="21.0386" y1="10.1083" x2="21.0386" y2="19.9662" gradientUnits="userSpaceOnUse">
<stop offset="0.127048" stop-color="#1681EB"/>
<stop offset="1" stop-color="#025CB5"/>
</linearGradient>
<linearGradient id="paint2_linear" x1="10.2569" y1="14.9792" x2="10.2569" y2="29.9268" gradientUnits="userSpaceOnUse">
<stop offset="0.127048" stop-color="#1681EB"/>
<stop offset="1" stop-color="#025CB5"/>
</linearGradient>
<linearGradient id="paint3_linear" x1="10.2569" y1="0.100952" x2="10.2569" y2="14.9791" gradientUnits="userSpaceOnUse">
<stop offset="0.127048" stop-color="#1681EB"/>
<stop offset="1" stop-color="#025CB5"/>
</linearGradient>
<linearGradient id="paint4_linear" x1="13.4707" y1="0.0731201" x2="13.4707" y2="14.9792" gradientUnits="userSpaceOnUse">
<stop offset="0.127048" stop-color="#1681EB"/>
<stop offset="1" stop-color="#025CB5"/>
</linearGradient>
</defs>
</svg>
