<svg width="48" height="48" viewBox="0 0 48 48" fill="none" xmlns="http://www.w3.org/2000/svg">
<path fill-rule="evenodd" clip-rule="evenodd" d="M44.6207 48H3.38031C1.52149 48 0 46.4785 0 44.6198V3.38024C0 1.52146 1.52149 0 3.38031 0H44.6207C46.4795 0 48 1.52146 48 3.38024V44.6198C48 46.4785 46.4785 48 44.6207 48Z" fill="#1A75CF"/>
<path fill-rule="evenodd" clip-rule="evenodd" d="M26.8326 30.8169C24.2695 35.6871 18.716 37.5331 13.9004 34.9409C17.0072 29.0494 20.1141 23.158 23.1821 17.2666C25.7452 12.3963 31.2987 10.5504 36.1143 13.1426L26.8326 30.8169ZM21.784 16.5989L17.1237 25.436C12.3081 22.8438 10.4829 16.7953 13.046 11.8857L21.784 16.5989Z" fill="white"/>
</svg>
