<svg width="305" height="154" viewBox="0 0 305 154" fill="none" xmlns="http://www.w3.org/2000/svg">
<rect width="305" height="46" rx="5" fill="#F8F9FA"/>
<path d="M33.3149 12.333C35.3235 12.333 36.9647 13.896 36.9647 15.81V27.038C36.9647 28.952 35.3246 30.514 33.3149 30.514H21.5234C19.5168 30.513 17.8746 28.951 17.8746 27.038V15.81C17.8746 13.896 19.5158 12.333 21.5244 12.333H33.3149ZM19.2396 19.262V27.038C19.2396 28.233 20.2686 29.214 21.5244 29.214H33.3149C34.5707 29.214 35.5997 28.234 35.5997 27.038V19.263L31.3304 22.655L34.5182 25.249C34.7754 25.459 34.829 25.813 34.6589 26.08L34.5938 26.166C34.3481 26.439 33.9176 26.471 33.6309 26.238L30.2667 23.5L27.857 25.415C27.6323 25.594 27.3162 25.614 27.0705 25.475L26.9823 25.415L24.5726 23.5L21.2084 26.238C20.9501 26.448 20.5752 26.442 20.3243 26.24L20.2455 26.166C20.0009 25.893 20.0355 25.483 20.3211 25.249L23.5089 22.655L19.2396 19.262ZM33.3149 13.632H21.5234C20.2707 13.633 19.2396 14.615 19.2396 15.811V17.57L27.4191 24.07L35.5986 17.57V15.81C35.5986 14.615 34.5696 13.634 33.3149 13.634V13.632Z" fill="#1A75CF"/>
<path d="M138.234 22.7422H133.305V26.7734H139.031V28H131.805V16.625H138.953V17.8594H133.305V21.5156H138.234V22.7422ZM143.68 23.7578H139.867V22.5781H143.68V23.7578ZM146.453 19.5469L146.492 20.4844C147.112 19.7552 147.948 19.3906 149 19.3906C150.182 19.3906 150.987 19.8438 151.414 20.75C151.695 20.3438 152.06 20.0156 152.508 19.7656C152.961 19.5156 153.495 19.3906 154.109 19.3906C155.964 19.3906 156.906 20.3724 156.938 22.3359V28H155.492V22.4219C155.492 21.8177 155.354 21.3672 155.078 21.0703C154.802 20.7682 154.339 20.6172 153.688 20.6172C153.151 20.6172 152.706 20.7786 152.352 21.1016C151.997 21.4193 151.792 21.849 151.734 22.3906V28H150.281V22.4609C150.281 21.2318 149.68 20.6172 148.477 20.6172C147.529 20.6172 146.88 21.0208 146.531 21.8281V28H145.086V19.5469H146.453ZM164.344 28C164.26 27.8333 164.193 27.5365 164.141 27.1094C163.469 27.8073 162.667 28.1562 161.734 28.1562C160.901 28.1562 160.216 27.9219 159.68 27.4531C159.148 26.9792 158.883 26.3802 158.883 25.6562C158.883 24.776 159.216 24.0938 159.883 23.6094C160.555 23.1198 161.497 22.875 162.711 22.875H164.117V22.2109C164.117 21.7057 163.966 21.3047 163.664 21.0078C163.362 20.7057 162.917 20.5547 162.328 20.5547C161.812 20.5547 161.38 20.6849 161.031 20.9453C160.682 21.2057 160.508 21.5208 160.508 21.8906H159.055C159.055 21.4688 159.203 21.0625 159.5 20.6719C159.802 20.276 160.208 19.9635 160.719 19.7344C161.234 19.5052 161.799 19.3906 162.414 19.3906C163.388 19.3906 164.151 19.6354 164.703 20.125C165.255 20.6094 165.542 21.2786 165.562 22.1328V26.0234C165.562 26.7995 165.661 27.4167 165.859 27.875V28H164.344ZM161.945 26.8984C162.398 26.8984 162.828 26.7812 163.234 26.5469C163.641 26.3125 163.935 26.0078 164.117 25.6328V23.8984H162.984C161.214 23.8984 160.328 24.4167 160.328 25.4531C160.328 25.9062 160.479 26.2604 160.781 26.5156C161.083 26.7708 161.471 26.8984 161.945 26.8984ZM169.398 28H167.953V19.5469H169.398V28ZM167.836 17.3047C167.836 17.0703 167.906 16.8724 168.047 16.7109C168.193 16.5495 168.406 16.4688 168.688 16.4688C168.969 16.4688 169.182 16.5495 169.328 16.7109C169.474 16.8724 169.547 17.0703 169.547 17.3047C169.547 17.5391 169.474 17.7344 169.328 17.8906C169.182 18.0469 168.969 18.125 168.688 18.125C168.406 18.125 168.193 18.0469 168.047 17.8906C167.906 17.7344 167.836 17.5391 167.836 17.3047ZM173.289 28H171.844V16H173.289V28Z" fill="#3F474F"/>
<rect y="54" width="305" height="46" rx="5" fill="#F8F9FA"/>
<path d="M35.375 65H19.625C18.1773 65 17 66.1773 17 67.625V83.375C17 84.8227 18.1773 86 19.625 86H35.375C36.8227 86 38 84.8227 38 83.375V67.625C38 66.1773 36.8227 65 35.375 65Z" fill="#2F80ED"/>
<path d="M34.7188 75.5H31.4375V72.875C31.4375 72.1505 32.0255 72.2188 32.75 72.2188H34.0625V68.9375H31.4375C29.2627 68.9375 27.5 70.7002 27.5 72.875V75.5H24.875V78.7812H27.5V86H31.4375V78.7812H33.4062L34.7188 75.5Z" fill="#FAFAFA"/>
<path d="M125.352 76.9766H120.578V82H119.078V70.625H126.125V71.8594H120.578V75.75H125.352V76.9766ZM132.648 82C132.565 81.8333 132.497 81.5365 132.445 81.1094C131.773 81.8073 130.971 82.1562 130.039 82.1562C129.206 82.1562 128.521 81.9219 127.984 81.4531C127.453 80.9792 127.188 80.3802 127.188 79.6562C127.188 78.776 127.521 78.0938 128.188 77.6094C128.859 77.1198 129.802 76.875 131.016 76.875H132.422V76.2109C132.422 75.7057 132.271 75.3047 131.969 75.0078C131.667 74.7057 131.221 74.5547 130.633 74.5547C130.117 74.5547 129.685 74.6849 129.336 74.9453C128.987 75.2057 128.812 75.5208 128.812 75.8906H127.359C127.359 75.4688 127.508 75.0625 127.805 74.6719C128.107 74.276 128.513 73.9635 129.023 73.7344C129.539 73.5052 130.104 73.3906 130.719 73.3906C131.693 73.3906 132.456 73.6354 133.008 74.125C133.56 74.6094 133.846 75.2786 133.867 76.1328V80.0234C133.867 80.7995 133.966 81.4167 134.164 81.875V82H132.648ZM130.25 80.8984C130.703 80.8984 131.133 80.7812 131.539 80.5469C131.945 80.3125 132.24 80.0078 132.422 79.6328V77.8984H131.289C129.518 77.8984 128.633 78.4167 128.633 79.4531C128.633 79.9062 128.784 80.2604 129.086 80.5156C129.388 80.7708 129.776 80.8984 130.25 80.8984ZM139.523 80.9766C140.039 80.9766 140.49 80.8203 140.875 80.5078C141.26 80.1953 141.474 79.8047 141.516 79.3359H142.883C142.857 79.8203 142.69 80.2812 142.383 80.7188C142.076 81.1562 141.664 81.5052 141.148 81.7656C140.638 82.026 140.096 82.1562 139.523 82.1562C138.372 82.1562 137.456 81.7734 136.773 81.0078C136.096 80.237 135.758 79.1849 135.758 77.8516V77.6094C135.758 76.7865 135.909 76.0547 136.211 75.4141C136.513 74.7734 136.945 74.276 137.508 73.9219C138.076 73.5677 138.745 73.3906 139.516 73.3906C140.464 73.3906 141.25 73.6745 141.875 74.2422C142.505 74.8099 142.841 75.5469 142.883 76.4531H141.516C141.474 75.9062 141.266 75.4583 140.891 75.1094C140.521 74.7552 140.062 74.5781 139.516 74.5781C138.781 74.5781 138.211 74.8438 137.805 75.375C137.404 75.901 137.203 76.6641 137.203 77.6641V77.9375C137.203 78.9115 137.404 79.6615 137.805 80.1875C138.206 80.7135 138.779 80.9766 139.523 80.9766ZM148.016 82.1562C146.87 82.1562 145.938 81.7812 145.219 81.0312C144.5 80.276 144.141 79.2682 144.141 78.0078V77.7422C144.141 76.9036 144.299 76.1562 144.617 75.5C144.94 74.8385 145.388 74.3229 145.961 73.9531C146.539 73.5781 147.164 73.3906 147.836 73.3906C148.935 73.3906 149.789 73.7526 150.398 74.4766C151.008 75.2005 151.312 76.237 151.312 77.5859V78.1875H145.586C145.607 79.0208 145.849 79.6953 146.312 80.2109C146.781 80.7214 147.375 80.9766 148.094 80.9766C148.604 80.9766 149.036 80.8724 149.391 80.6641C149.745 80.4557 150.055 80.1797 150.32 79.8359L151.203 80.5234C150.495 81.612 149.432 82.1562 148.016 82.1562ZM147.836 74.5781C147.253 74.5781 146.763 74.7917 146.367 75.2188C145.971 75.6406 145.727 76.2344 145.633 77H149.867V76.8906C149.826 76.1562 149.628 75.5885 149.273 75.1875C148.919 74.7812 148.44 74.5781 147.836 74.5781ZM160.148 77.8672C160.148 79.1589 159.852 80.1979 159.258 80.9844C158.664 81.7656 157.867 82.1562 156.867 82.1562C155.799 82.1562 154.974 81.7786 154.391 81.0234L154.32 82H152.992V70H154.438V74.4766C155.021 73.7526 155.826 73.3906 156.852 73.3906C157.878 73.3906 158.682 73.7786 159.266 74.5547C159.854 75.3307 160.148 76.3932 160.148 77.7422V77.8672ZM158.703 77.7031C158.703 76.7188 158.513 75.9583 158.133 75.4219C157.753 74.8854 157.206 74.6172 156.492 74.6172C155.539 74.6172 154.854 75.0599 154.438 75.9453V79.6016C154.88 80.487 155.57 80.9297 156.508 80.9297C157.201 80.9297 157.74 80.6615 158.125 80.125C158.51 79.5885 158.703 78.7812 158.703 77.7031ZM161.594 77.6953C161.594 76.8672 161.755 76.1224 162.078 75.4609C162.406 74.7995 162.859 74.2891 163.438 73.9297C164.021 73.5703 164.685 73.3906 165.43 73.3906C166.581 73.3906 167.51 73.7891 168.219 74.5859C168.932 75.3828 169.289 76.4427 169.289 77.7656V77.8672C169.289 78.6901 169.13 79.4297 168.812 80.0859C168.5 80.737 168.049 81.2448 167.461 81.6094C166.878 81.974 166.206 82.1562 165.445 82.1562C164.299 82.1562 163.37 81.7578 162.656 80.9609C161.948 80.1641 161.594 79.1094 161.594 77.7969V77.6953ZM163.047 77.8672C163.047 78.8047 163.263 79.5573 163.695 80.125C164.133 80.6927 164.716 80.9766 165.445 80.9766C166.18 80.9766 166.763 80.6901 167.195 80.1172C167.628 79.5391 167.844 78.7318 167.844 77.6953C167.844 76.7682 167.622 76.0182 167.18 75.4453C166.742 74.8672 166.159 74.5781 165.43 74.5781C164.716 74.5781 164.141 74.862 163.703 75.4297C163.266 75.9974 163.047 76.8099 163.047 77.8672ZM170.719 77.6953C170.719 76.8672 170.88 76.1224 171.203 75.4609C171.531 74.7995 171.984 74.2891 172.562 73.9297C173.146 73.5703 173.81 73.3906 174.555 73.3906C175.706 73.3906 176.635 73.7891 177.344 74.5859C178.057 75.3828 178.414 76.4427 178.414 77.7656V77.8672C178.414 78.6901 178.255 79.4297 177.938 80.0859C177.625 80.737 177.174 81.2448 176.586 81.6094C176.003 81.974 175.331 82.1562 174.57 82.1562C173.424 82.1562 172.495 81.7578 171.781 80.9609C171.073 80.1641 170.719 79.1094 170.719 77.7969V77.6953ZM172.172 77.8672C172.172 78.8047 172.388 79.5573 172.82 80.125C173.258 80.6927 173.841 80.9766 174.57 80.9766C175.305 80.9766 175.888 80.6901 176.32 80.1172C176.753 79.5391 176.969 78.7318 176.969 77.6953C176.969 76.7682 176.747 76.0182 176.305 75.4453C175.867 74.8672 175.284 74.5781 174.555 74.5781C173.841 74.5781 173.266 74.862 172.828 75.4297C172.391 75.9974 172.172 76.8099 172.172 77.8672ZM182.586 78.0859L181.68 79.0312V82H180.234V70H181.68V77.2578L182.453 76.3281L185.086 73.5469H186.844L183.555 77.0781L187.227 82H185.531L182.586 78.0859Z" fill="#3F474F"/>
<rect y="108" width="305" height="46" rx="5" fill="#F8F9FA"/>
<g clip-path="url(#clip0)">
<path d="M37.2069 127.674L28.6413 127.674C28.263 127.674 27.9564 127.981 27.9564 128.359V131.095C27.9564 131.473 28.263 131.78 28.6412 131.78H33.4649C32.9367 133.151 31.9508 134.299 30.6931 135.028L32.7499 138.589C36.0492 136.68 37.9998 133.332 37.9998 129.584C37.9998 129.051 37.9605 128.669 37.8818 128.24C37.822 127.913 37.5387 127.674 37.2069 127.674Z" fill="#167EE6"/>
<path d="M27.5001 135.891C25.1395 135.891 23.0787 134.602 21.9719 132.693L18.4115 134.745C20.2234 137.885 23.6176 140 27.5001 140C29.4048 140 31.2019 139.487 32.7501 138.594V138.589L30.6933 135.028C29.7525 135.574 28.6638 135.891 27.5001 135.891Z" fill="#12B347"/>
<path d="M32.75 138.593V138.589L30.6932 135.028C29.7524 135.574 28.6637 135.891 27.5 135.891V140C29.4046 140 31.2019 139.487 32.75 138.593Z" fill="#0F993E"/>
<path d="M21.1087 129.5C21.1087 128.336 21.4262 127.248 21.9718 126.307L18.4114 124.255C17.5128 125.798 17 127.59 17 129.5C17 131.41 17.5128 133.202 18.4114 134.745L21.9718 132.693C21.4262 131.752 21.1087 130.664 21.1087 129.5Z" fill="#FFD500"/>
<path d="M27.5001 123.109C29.0395 123.109 30.4534 123.656 31.5579 124.566C31.8303 124.79 32.2263 124.774 32.4759 124.524L34.4147 122.585C34.6979 122.302 34.6777 121.839 34.3752 121.576C32.5248 119.971 30.1172 119 27.5001 119C23.6176 119 20.2234 121.115 18.4115 124.255L21.9719 126.307C23.0787 124.398 25.1395 123.109 27.5001 123.109Z" fill="#FF4B26"/>
<path d="M31.5578 124.566C31.8302 124.79 32.2263 124.774 32.4758 124.524L34.4146 122.585C34.6978 122.302 34.6776 121.839 34.3751 121.576C32.5247 119.971 30.1171 119 27.5 119V123.109C29.0393 123.109 30.4533 123.656 31.5578 124.566Z" fill="#D93F21"/>
</g>
<path d="M136.961 134.508C136.576 135.06 136.036 135.474 135.344 135.75C134.656 136.021 133.854 136.156 132.938 136.156C132.01 136.156 131.188 135.94 130.469 135.508C129.75 135.07 129.193 134.451 128.797 133.648C128.406 132.846 128.206 131.917 128.195 130.859V129.867C128.195 128.154 128.594 126.826 129.391 125.883C130.193 124.94 131.318 124.469 132.766 124.469C133.953 124.469 134.909 124.773 135.633 125.383C136.357 125.987 136.799 126.846 136.961 127.961H135.461C135.18 126.456 134.284 125.703 132.773 125.703C131.768 125.703 131.005 126.057 130.484 126.766C129.969 127.469 129.708 128.49 129.703 129.828V130.758C129.703 132.034 129.995 133.049 130.578 133.805C131.161 134.555 131.951 134.93 132.945 134.93C133.508 134.93 134 134.867 134.422 134.742C134.844 134.617 135.193 134.406 135.469 134.109V131.555H132.836V130.336H136.961V134.508ZM138.859 131.695C138.859 130.867 139.021 130.122 139.344 129.461C139.672 128.799 140.125 128.289 140.703 127.93C141.286 127.57 141.951 127.391 142.695 127.391C143.846 127.391 144.776 127.789 145.484 128.586C146.198 129.383 146.555 130.443 146.555 131.766V131.867C146.555 132.69 146.396 133.43 146.078 134.086C145.766 134.737 145.315 135.245 144.727 135.609C144.143 135.974 143.471 136.156 142.711 136.156C141.565 136.156 140.635 135.758 139.922 134.961C139.214 134.164 138.859 133.109 138.859 131.797V131.695ZM140.312 131.867C140.312 132.805 140.529 133.557 140.961 134.125C141.398 134.693 141.982 134.977 142.711 134.977C143.445 134.977 144.029 134.69 144.461 134.117C144.893 133.539 145.109 132.732 145.109 131.695C145.109 130.768 144.888 130.018 144.445 129.445C144.008 128.867 143.424 128.578 142.695 128.578C141.982 128.578 141.406 128.862 140.969 129.43C140.531 129.997 140.312 130.81 140.312 131.867ZM147.984 131.695C147.984 130.867 148.146 130.122 148.469 129.461C148.797 128.799 149.25 128.289 149.828 127.93C150.411 127.57 151.076 127.391 151.82 127.391C152.971 127.391 153.901 127.789 154.609 128.586C155.323 129.383 155.68 130.443 155.68 131.766V131.867C155.68 132.69 155.521 133.43 155.203 134.086C154.891 134.737 154.44 135.245 153.852 135.609C153.268 135.974 152.596 136.156 151.836 136.156C150.69 136.156 149.76 135.758 149.047 134.961C148.339 134.164 147.984 133.109 147.984 131.797V131.695ZM149.438 131.867C149.438 132.805 149.654 133.557 150.086 134.125C150.523 134.693 151.107 134.977 151.836 134.977C152.57 134.977 153.154 134.69 153.586 134.117C154.018 133.539 154.234 132.732 154.234 131.695C154.234 130.768 154.013 130.018 153.57 129.445C153.133 128.867 152.549 128.578 151.82 128.578C151.107 128.578 150.531 128.862 150.094 129.43C149.656 129.997 149.438 130.81 149.438 131.867ZM157.148 131.703C157.148 130.385 157.453 129.339 158.062 128.562C158.672 127.781 159.479 127.391 160.484 127.391C161.516 127.391 162.32 127.755 162.898 128.484L162.969 127.547H164.289V135.797C164.289 136.891 163.964 137.753 163.312 138.383C162.667 139.013 161.797 139.328 160.703 139.328C160.094 139.328 159.497 139.198 158.914 138.938C158.331 138.677 157.885 138.32 157.578 137.867L158.328 137C158.948 137.766 159.706 138.148 160.602 138.148C161.305 138.148 161.852 137.951 162.242 137.555C162.638 137.159 162.836 136.602 162.836 135.883V135.156C162.258 135.823 161.469 136.156 160.469 136.156C159.479 136.156 158.677 135.758 158.062 134.961C157.453 134.164 157.148 133.078 157.148 131.703ZM158.602 131.867C158.602 132.82 158.797 133.57 159.188 134.117C159.578 134.659 160.125 134.93 160.828 134.93C161.74 134.93 162.409 134.516 162.836 133.688V129.828C162.393 129.021 161.729 128.617 160.844 128.617C160.141 128.617 159.591 128.891 159.195 129.438C158.799 129.984 158.602 130.794 158.602 131.867ZM168.047 136H166.602V124H168.047V136ZM173.875 136.156C172.729 136.156 171.797 135.781 171.078 135.031C170.359 134.276 170 133.268 170 132.008V131.742C170 130.904 170.159 130.156 170.477 129.5C170.799 128.839 171.247 128.323 171.82 127.953C172.398 127.578 173.023 127.391 173.695 127.391C174.794 127.391 175.648 127.753 176.258 128.477C176.867 129.201 177.172 130.237 177.172 131.586V132.188H171.445C171.466 133.021 171.708 133.695 172.172 134.211C172.641 134.721 173.234 134.977 173.953 134.977C174.464 134.977 174.896 134.872 175.25 134.664C175.604 134.456 175.914 134.18 176.18 133.836L177.062 134.523C176.354 135.612 175.292 136.156 173.875 136.156ZM173.695 128.578C173.112 128.578 172.622 128.792 172.227 129.219C171.831 129.641 171.586 130.234 171.492 131H175.727V130.891C175.685 130.156 175.487 129.589 175.133 129.188C174.779 128.781 174.299 128.578 173.695 128.578Z" fill="#3F474F"/>
<defs>
<clipPath id="clip0">
<rect width="21" height="21" fill="white" transform="translate(17 119)"/>
</clipPath>
</defs>
</svg>
