<svg width="401" height="312" viewBox="0 0 401 312" fill="none" xmlns="http://www.w3.org/2000/svg">
<g filter="url(#filter0_d)">
<path d="M16 20C16 13.3726 21.3726 8 28 8H373C379.627 8 385 13.3726 385 20V276C385 282.627 379.627 288 373 288H28C21.3726 288 16 282.627 16 276V20Z" fill="white"/>
<path d="M55.1218 65.192C55.1218 65.6293 55.1964 66.0027 55.3458 66.312C55.4951 66.6213 55.7031 66.8773 55.9698 67.08C56.2364 67.272 56.5404 67.416 56.8818 67.512C57.2338 67.5973 57.6124 67.64 58.0178 67.64C58.4551 67.64 58.8284 67.592 59.1378 67.496C59.4471 67.3893 59.6978 67.256 59.8898 67.096C60.0818 66.936 60.2204 66.7547 60.3058 66.552C60.3911 66.3387 60.4338 66.1253 60.4338 65.912C60.4338 65.4747 60.3324 65.1547 60.1298 64.952C59.9378 64.7387 59.7244 64.5893 59.4898 64.504C59.0844 64.3547 58.6098 64.216 58.0658 64.088C57.5324 63.9493 56.8711 63.7733 56.0818 63.56C55.5911 63.432 55.1804 63.2667 54.8498 63.064C54.5298 62.8507 54.2738 62.616 54.0818 62.36C53.8898 62.104 53.7511 61.832 53.6658 61.544C53.5911 61.256 53.5538 60.9627 53.5538 60.664C53.5538 60.088 53.6711 59.592 53.9058 59.176C54.1511 58.7493 54.4711 58.3973 54.8658 58.12C55.2604 57.8427 55.7084 57.64 56.2098 57.512C56.7111 57.3733 57.2178 57.304 57.7298 57.304C58.3271 57.304 58.8871 57.384 59.4098 57.544C59.9431 57.6933 60.4071 57.9227 60.8018 58.232C61.2071 58.5413 61.5271 58.9253 61.7618 59.384C61.9964 59.832 62.1138 60.3547 62.1138 60.952H60.1138C60.0604 60.216 59.8098 59.6987 59.3618 59.4C58.9138 59.0907 58.3431 58.936 57.6498 58.936C57.4151 58.936 57.1751 58.9627 56.9298 59.016C56.6844 59.0587 56.4604 59.1387 56.2578 59.256C56.0551 59.3627 55.8844 59.512 55.7458 59.704C55.6178 59.896 55.5538 60.136 55.5538 60.424C55.5538 60.8293 55.6764 61.1493 55.9218 61.384C56.1778 61.608 56.5084 61.7787 56.9138 61.896C56.9564 61.9067 57.1218 61.9547 57.4098 62.04C57.7084 62.1147 58.0391 62.2 58.4018 62.296C58.7644 62.392 59.1164 62.488 59.4578 62.584C59.8098 62.6693 60.0604 62.7333 60.2098 62.776C60.5831 62.8933 60.9084 63.0533 61.1858 63.256C61.4631 63.4587 61.6924 63.6933 61.8738 63.96C62.0658 64.216 62.2044 64.4933 62.2898 64.792C62.3858 65.0907 62.4338 65.3893 62.4338 65.688C62.4338 66.328 62.3004 66.8773 62.0338 67.336C61.7778 67.784 61.4364 68.152 61.0098 68.44C60.5831 68.728 60.0978 68.936 59.5538 69.064C59.0098 69.2027 58.4551 69.272 57.8898 69.272C57.2391 69.272 56.6258 69.192 56.0498 69.032C55.4738 68.872 54.9724 68.6267 54.5458 68.296C54.1191 67.9653 53.7778 67.544 53.5218 67.032C53.2658 66.5093 53.1324 65.896 53.1217 65.192H55.1218ZM69.6088 64.136C69.5874 63.848 69.5234 63.5707 69.4168 63.304C69.3208 63.0373 69.1821 62.808 69.0008 62.616C68.8301 62.4133 68.6168 62.2533 68.3608 62.136C68.1154 62.008 67.8381 61.944 67.5288 61.944C67.2088 61.944 66.9154 62.0027 66.6488 62.12C66.3928 62.2267 66.1688 62.3813 65.9768 62.584C65.7954 62.776 65.6461 63.0053 65.5288 63.272C65.4221 63.5387 65.3634 63.8267 65.3528 64.136H69.6088ZM65.3528 65.336C65.3528 65.656 65.3954 65.9653 65.4808 66.264C65.5768 66.5627 65.7154 66.824 65.8968 67.048C66.0781 67.272 66.3074 67.4533 66.5848 67.592C66.8621 67.72 67.1928 67.784 67.5768 67.784C68.1101 67.784 68.5368 67.672 68.8568 67.448C69.1874 67.2133 69.4328 66.8667 69.5928 66.408H71.3208C71.2248 66.856 71.0594 67.256 70.8248 67.608C70.5901 67.96 70.3074 68.2587 69.9768 68.504C69.6461 68.7387 69.2728 68.9147 68.8568 69.032C68.4514 69.16 68.0248 69.224 67.5768 69.224C66.9261 69.224 66.3501 69.1173 65.8488 68.904C65.3474 68.6907 64.9208 68.392 64.5688 68.008C64.2274 67.624 63.9661 67.1653 63.7848 66.632C63.6141 66.0987 63.5288 65.512 63.5288 64.872C63.5288 64.2853 63.6194 63.7307 63.8008 63.208C63.9928 62.6747 64.2594 62.2107 64.6008 61.816C64.9528 61.4107 65.3741 61.0907 65.8648 60.856C66.3554 60.6213 66.9101 60.504 67.5288 60.504C68.1794 60.504 68.7608 60.6427 69.2728 60.92C69.7954 61.1867 70.2274 61.544 70.5688 61.992C70.9101 62.44 71.1554 62.9573 71.3048 63.544C71.4648 64.12 71.5074 64.7173 71.4328 65.336H65.3528ZM72.8674 57.576H74.6914V69H72.8674V57.576ZM82.3588 64.136C82.3374 63.848 82.2734 63.5707 82.1668 63.304C82.0708 63.0373 81.9321 62.808 81.7508 62.616C81.5801 62.4133 81.3668 62.2533 81.1108 62.136C80.8654 62.008 80.5881 61.944 80.2788 61.944C79.9588 61.944 79.6654 62.0027 79.3988 62.12C79.1428 62.2267 78.9188 62.3813 78.7268 62.584C78.5454 62.776 78.3961 63.0053 78.2788 63.272C78.1721 63.5387 78.1134 63.8267 78.1028 64.136H82.3588ZM78.1028 65.336C78.1028 65.656 78.1454 65.9653 78.2308 66.264C78.3268 66.5627 78.4654 66.824 78.6468 67.048C78.8281 67.272 79.0574 67.4533 79.3348 67.592C79.6121 67.72 79.9428 67.784 80.3268 67.784C80.8601 67.784 81.2868 67.672 81.6068 67.448C81.9374 67.2133 82.1828 66.8667 82.3428 66.408H84.0708C83.9748 66.856 83.8094 67.256 83.5748 67.608C83.3401 67.96 83.0574 68.2587 82.7268 68.504C82.3961 68.7387 82.0228 68.9147 81.6068 69.032C81.2014 69.16 80.7748 69.224 80.3268 69.224C79.6761 69.224 79.1001 69.1173 78.5988 68.904C78.0974 68.6907 77.6708 68.392 77.3188 68.008C76.9774 67.624 76.7161 67.1653 76.5348 66.632C76.3641 66.0987 76.2788 65.512 76.2788 64.872C76.2788 64.2853 76.3694 63.7307 76.5508 63.208C76.7428 62.6747 77.0094 62.2107 77.3508 61.816C77.7028 61.4107 78.1241 61.0907 78.6148 60.856C79.1054 60.6213 79.6601 60.504 80.2788 60.504C80.9294 60.504 81.5108 60.6427 82.0228 60.92C82.5454 61.1867 82.9774 61.544 83.3188 61.992C83.6601 62.44 83.9054 62.9573 84.0548 63.544C84.2148 64.12 84.2574 64.7173 84.1828 65.336H78.1028ZM91.1534 63.496C91.0787 62.984 90.8707 62.6 90.5294 62.344C90.1987 62.0773 89.7774 61.944 89.2654 61.944C89.0307 61.944 88.78 61.9867 88.5134 62.072C88.2467 62.1467 88.0014 62.296 87.7774 62.52C87.5534 62.7333 87.3667 63.0373 87.2174 63.432C87.068 63.816 86.9934 64.3227 86.9934 64.952C86.9934 65.2933 87.0307 65.6347 87.1054 65.976C87.1907 66.3173 87.3187 66.6213 87.4894 66.888C87.6707 67.1547 87.9 67.3733 88.1774 67.544C88.4547 67.704 88.7907 67.784 89.1854 67.784C89.7187 67.784 90.156 67.6187 90.4974 67.288C90.8494 66.9573 91.068 66.4933 91.1534 65.896H92.9774C92.8067 66.9733 92.396 67.8 91.7454 68.376C91.1054 68.9413 90.252 69.224 89.1854 69.224C88.5347 69.224 87.9587 69.1173 87.4574 68.904C86.9667 68.68 86.5507 68.3813 86.2094 68.008C85.868 67.624 85.6067 67.1707 85.4254 66.648C85.2547 66.1253 85.1694 65.56 85.1694 64.952C85.1694 64.3333 85.2547 63.752 85.4254 63.208C85.596 62.664 85.852 62.1947 86.1934 61.8C86.5347 61.3947 86.956 61.08 87.4574 60.856C87.9694 60.6213 88.5667 60.504 89.2494 60.504C89.7294 60.504 90.1827 60.568 90.6094 60.696C91.0467 60.8133 91.4307 60.9947 91.7614 61.24C92.1027 61.4853 92.38 61.7947 92.5934 62.168C92.8067 62.5413 92.9347 62.984 92.9774 63.496H91.1534ZM100.044 63.496C99.9693 62.984 99.7613 62.6 99.42 62.344C99.0893 62.0773 98.668 61.944 98.156 61.944C97.9213 61.944 97.6707 61.9867 97.404 62.072C97.1373 62.1467 96.892 62.296 96.668 62.52C96.444 62.7333 96.2573 63.0373 96.108 63.432C95.9587 63.816 95.884 64.3227 95.884 64.952C95.884 65.2933 95.9213 65.6347 95.996 65.976C96.0813 66.3173 96.2093 66.6213 96.38 66.888C96.5613 67.1547 96.7907 67.3733 97.068 67.544C97.3453 67.704 97.6813 67.784 98.076 67.784C98.6093 67.784 99.0467 67.6187 99.388 67.288C99.74 66.9573 99.9587 66.4933 100.044 65.896H101.868C101.697 66.9733 101.287 67.8 100.636 68.376C99.996 68.9413 99.1427 69.224 98.076 69.224C97.4253 69.224 96.8493 69.1173 96.348 68.904C95.8573 68.68 95.4413 68.3813 95.1 68.008C94.7587 67.624 94.4973 67.1707 94.316 66.648C94.1453 66.1253 94.06 65.56 94.06 64.952C94.06 64.3333 94.1453 63.752 94.316 63.208C94.4867 62.664 94.7427 62.1947 95.084 61.8C95.4253 61.3947 95.8467 61.08 96.348 60.856C96.86 60.6213 97.4573 60.504 98.14 60.504C98.62 60.504 99.0733 60.568 99.5 60.696C99.9373 60.8133 100.321 60.9947 100.652 61.24C100.993 61.4853 101.271 61.7947 101.484 62.168C101.697 62.5413 101.825 62.984 101.868 63.496H100.044ZM103.399 57.576H105.223V59.304H103.399V57.576ZM103.399 60.728H105.223V69H103.399V60.728ZM111.002 69.224C110.341 69.224 109.749 69.1173 109.226 68.904C108.714 68.68 108.277 68.376 107.914 67.992C107.562 67.608 107.29 67.1493 107.098 66.616C106.917 66.0827 106.826 65.496 106.826 64.856C106.826 64.2267 106.917 63.6453 107.098 63.112C107.29 62.5787 107.562 62.12 107.914 61.736C108.277 61.352 108.714 61.0533 109.226 60.84C109.749 60.616 110.341 60.504 111.002 60.504C111.663 60.504 112.25 60.616 112.762 60.84C113.285 61.0533 113.722 61.352 114.074 61.736C114.437 62.12 114.709 62.5787 114.89 63.112C115.082 63.6453 115.178 64.2267 115.178 64.856C115.178 65.496 115.082 66.0827 114.89 66.616C114.709 67.1493 114.437 67.608 114.074 67.992C113.722 68.376 113.285 68.68 112.762 68.904C112.25 69.1173 111.663 69.224 111.002 69.224ZM111.002 67.784C111.407 67.784 111.759 67.6987 112.058 67.528C112.357 67.3573 112.602 67.1333 112.794 66.856C112.986 66.5787 113.125 66.2693 113.21 65.928C113.306 65.576 113.354 65.2187 113.354 64.856C113.354 64.504 113.306 64.152 113.21 63.8C113.125 63.448 112.986 63.1387 112.794 62.872C112.602 62.5947 112.357 62.3707 112.058 62.2C111.759 62.0293 111.407 61.944 111.002 61.944C110.597 61.944 110.245 62.0293 109.946 62.2C109.647 62.3707 109.402 62.5947 109.21 62.872C109.018 63.1387 108.874 63.448 108.778 63.8C108.693 64.152 108.65 64.504 108.65 64.856C108.65 65.2187 108.693 65.576 108.778 65.928C108.874 66.2693 109.018 66.5787 109.21 66.856C109.402 67.1333 109.647 67.3573 109.946 67.528C110.245 67.6987 110.597 67.784 111.002 67.784ZM116.694 60.728H118.422V61.944L118.454 61.976C118.732 61.5173 119.094 61.16 119.542 60.904C119.99 60.6373 120.486 60.504 121.03 60.504C121.937 60.504 122.652 60.7387 123.174 61.208C123.697 61.6773 123.958 62.3813 123.958 63.32V69H122.134V63.8C122.113 63.1493 121.974 62.68 121.718 62.392C121.462 62.0933 121.062 61.944 120.518 61.944C120.209 61.944 119.932 62.0027 119.686 62.12C119.441 62.2267 119.233 62.3813 119.062 62.584C118.892 62.776 118.758 63.0053 118.662 63.272C118.566 63.5387 118.518 63.8213 118.518 64.12V69H116.694V60.728ZM131.562 64.136C131.541 63.848 131.477 63.5707 131.37 63.304C131.274 63.0373 131.135 62.808 130.954 62.616C130.783 62.4133 130.57 62.2533 130.314 62.136C130.069 62.008 129.791 61.944 129.482 61.944C129.162 61.944 128.869 62.0027 128.602 62.12C128.346 62.2267 128.122 62.3813 127.93 62.584C127.749 62.776 127.599 63.0053 127.482 63.272C127.375 63.5387 127.317 63.8267 127.306 64.136H131.562ZM127.306 65.336C127.306 65.656 127.349 65.9653 127.434 66.264C127.53 66.5627 127.669 66.824 127.85 67.048C128.031 67.272 128.261 67.4533 128.538 67.592C128.815 67.72 129.146 67.784 129.53 67.784C130.063 67.784 130.49 67.672 130.81 67.448C131.141 67.2133 131.386 66.8667 131.546 66.408H133.274C133.178 66.856 133.013 67.256 132.778 67.608C132.543 67.96 132.261 68.2587 131.93 68.504C131.599 68.7387 131.226 68.9147 130.81 69.032C130.405 69.16 129.978 69.224 129.53 69.224C128.879 69.224 128.303 69.1173 127.802 68.904C127.301 68.6907 126.874 68.392 126.522 68.008C126.181 67.624 125.919 67.1653 125.738 66.632C125.567 66.0987 125.482 65.512 125.482 64.872C125.482 64.2853 125.573 63.7307 125.754 63.208C125.946 62.6747 126.213 62.2107 126.554 61.816C126.906 61.4107 127.327 61.0907 127.818 60.856C128.309 60.6213 128.863 60.504 129.482 60.504C130.133 60.504 130.714 60.6427 131.226 60.92C131.749 61.1867 132.181 61.544 132.522 61.992C132.863 62.44 133.109 62.9573 133.258 63.544C133.418 64.12 133.461 64.7173 133.386 65.336H127.306ZM146.49 69H144.698V67.848H144.666C144.442 68.264 144.106 68.6 143.658 68.856C143.22 69.1013 142.772 69.224 142.314 69.224C141.226 69.224 140.436 68.9573 139.946 68.424C139.466 67.88 139.226 67.064 139.226 65.976V60.728H141.05V65.8C141.05 66.5253 141.188 67.0373 141.466 67.336C141.743 67.6347 142.132 67.784 142.634 67.784C143.018 67.784 143.338 67.7253 143.594 67.608C143.85 67.4907 144.058 67.336 144.218 67.144C144.378 66.9413 144.49 66.7013 144.554 66.424C144.628 66.1467 144.666 65.848 144.666 65.528V60.728H146.49V69ZM148.413 60.728H150.141V61.944L150.173 61.976C150.45 61.5173 150.813 61.16 151.261 60.904C151.709 60.6373 152.205 60.504 152.749 60.504C153.656 60.504 154.37 60.7387 154.893 61.208C155.416 61.6773 155.677 62.3813 155.677 63.32V69H153.853V63.8C153.832 63.1493 153.693 62.68 153.437 62.392C153.181 62.0933 152.781 61.944 152.237 61.944C151.928 61.944 151.65 62.0027 151.405 62.12C151.16 62.2267 150.952 62.3813 150.781 62.584C150.61 62.776 150.477 63.0053 150.381 63.272C150.285 63.5387 150.237 63.8213 150.237 64.12V69H148.413V60.728ZM164.529 67.16C164.529 67.384 164.555 67.544 164.609 67.64C164.673 67.736 164.79 67.784 164.961 67.784C165.014 67.784 165.078 67.784 165.153 67.784C165.227 67.784 165.313 67.7733 165.409 67.752V69.016C165.345 69.0373 165.259 69.0587 165.153 69.08C165.057 69.112 164.955 69.1387 164.849 69.16C164.742 69.1813 164.635 69.1973 164.529 69.208C164.422 69.2187 164.331 69.224 164.257 69.224C163.883 69.224 163.574 69.1493 163.329 69C163.083 68.8507 162.923 68.5893 162.849 68.216C162.486 68.568 162.038 68.824 161.505 68.984C160.982 69.144 160.475 69.224 159.985 69.224C159.611 69.224 159.254 69.1707 158.913 69.064C158.571 68.968 158.267 68.824 158.001 68.632C157.745 68.4293 157.537 68.1787 157.377 67.88C157.227 67.5707 157.153 67.2133 157.153 66.808C157.153 66.296 157.243 65.88 157.425 65.56C157.617 65.24 157.862 64.9893 158.161 64.808C158.47 64.6267 158.811 64.4987 159.185 64.424C159.569 64.3387 159.953 64.2747 160.337 64.232C160.667 64.168 160.982 64.1253 161.281 64.104C161.579 64.072 161.841 64.024 162.065 63.96C162.299 63.896 162.481 63.8 162.609 63.672C162.747 63.5333 162.817 63.3307 162.817 63.064C162.817 62.8293 162.758 62.6373 162.641 62.488C162.534 62.3387 162.395 62.2267 162.225 62.152C162.065 62.0667 161.883 62.0133 161.681 61.992C161.478 61.96 161.286 61.944 161.105 61.944C160.593 61.944 160.171 62.0507 159.841 62.264C159.51 62.4773 159.323 62.808 159.281 63.256H157.457C157.489 62.7227 157.617 62.28 157.841 61.928C158.065 61.576 158.347 61.2933 158.689 61.08C159.041 60.8667 159.435 60.7173 159.873 60.632C160.31 60.5467 160.758 60.504 161.217 60.504C161.622 60.504 162.022 60.5467 162.417 60.632C162.811 60.7173 163.163 60.856 163.473 61.048C163.793 61.24 164.049 61.4907 164.241 61.8C164.433 62.0987 164.529 62.4667 164.529 62.904V67.16ZM162.705 64.856C162.427 65.0373 162.086 65.1493 161.681 65.192C161.275 65.224 160.87 65.2773 160.465 65.352C160.273 65.384 160.086 65.432 159.905 65.496C159.723 65.5493 159.563 65.6293 159.425 65.736C159.286 65.832 159.174 65.9653 159.089 66.136C159.014 66.296 158.977 66.4933 158.977 66.728C158.977 66.9307 159.035 67.1013 159.153 67.24C159.27 67.3787 159.409 67.4907 159.569 67.576C159.739 67.6507 159.921 67.704 160.113 67.736C160.315 67.768 160.497 67.784 160.657 67.784C160.859 67.784 161.078 67.7573 161.313 67.704C161.547 67.6507 161.766 67.56 161.969 67.432C162.182 67.304 162.358 67.144 162.497 66.952C162.635 66.7493 162.705 66.504 162.705 66.216V64.856ZM174.736 69.224C174.075 69.224 173.483 69.1173 172.96 68.904C172.448 68.68 172.011 68.376 171.648 67.992C171.296 67.608 171.024 67.1493 170.832 66.616C170.651 66.0827 170.56 65.496 170.56 64.856C170.56 64.2267 170.651 63.6453 170.832 63.112C171.024 62.5787 171.296 62.12 171.648 61.736C172.011 61.352 172.448 61.0533 172.96 60.84C173.483 60.616 174.075 60.504 174.736 60.504C175.398 60.504 175.984 60.616 176.496 60.84C177.019 61.0533 177.456 61.352 177.808 61.736C178.171 62.12 178.443 62.5787 178.624 63.112C178.816 63.6453 178.912 64.2267 178.912 64.856C178.912 65.496 178.816 66.0827 178.624 66.616C178.443 67.1493 178.171 67.608 177.808 67.992C177.456 68.376 177.019 68.68 176.496 68.904C175.984 69.1173 175.398 69.224 174.736 69.224ZM174.736 67.784C175.142 67.784 175.494 67.6987 175.792 67.528C176.091 67.3573 176.336 67.1333 176.528 66.856C176.72 66.5787 176.859 66.2693 176.944 65.928C177.04 65.576 177.088 65.2187 177.088 64.856C177.088 64.504 177.04 64.152 176.944 63.8C176.859 63.448 176.72 63.1387 176.528 62.872C176.336 62.5947 176.091 62.3707 175.792 62.2C175.494 62.0293 175.142 61.944 174.736 61.944C174.331 61.944 173.979 62.0293 173.68 62.2C173.382 62.3707 173.136 62.5947 172.944 62.872C172.752 63.1387 172.608 63.448 172.512 63.8C172.427 64.152 172.384 64.504 172.384 64.856C172.384 65.2187 172.427 65.576 172.512 65.928C172.608 66.2693 172.752 66.5787 172.944 66.856C173.136 67.1333 173.382 67.3573 173.68 67.528C173.979 67.6987 174.331 67.784 174.736 67.784ZM180.477 60.728H182.205V61.848H182.237C182.493 61.368 182.85 61.0267 183.309 60.824C183.767 60.6107 184.263 60.504 184.797 60.504C185.447 60.504 186.013 60.6213 186.493 60.856C186.983 61.08 187.389 61.3947 187.709 61.8C188.029 62.1947 188.269 62.6587 188.429 63.192C188.589 63.7253 188.669 64.296 188.669 64.904C188.669 65.4587 188.594 65.9973 188.445 66.52C188.306 67.0427 188.087 67.5067 187.789 67.912C187.501 68.3067 187.133 68.6267 186.685 68.872C186.237 69.1067 185.709 69.224 185.101 69.224C184.834 69.224 184.567 69.1973 184.301 69.144C184.034 69.1013 183.778 69.0267 183.533 68.92C183.287 68.8133 183.058 68.68 182.845 68.52C182.642 68.3493 182.471 68.152 182.333 67.928H182.301V72.056H180.477V60.728ZM186.845 64.872C186.845 64.4987 186.797 64.136 186.701 63.784C186.605 63.432 186.461 63.1227 186.269 62.856C186.077 62.5787 185.837 62.36 185.549 62.2C185.261 62.0293 184.93 61.944 184.557 61.944C183.789 61.944 183.207 62.2107 182.813 62.744C182.429 63.2773 182.237 63.9867 182.237 64.872C182.237 65.288 182.285 65.6773 182.381 66.04C182.487 66.392 182.642 66.696 182.845 66.952C183.047 67.208 183.287 67.4107 183.565 67.56C183.853 67.7093 184.183 67.784 184.557 67.784C184.973 67.784 185.325 67.6987 185.613 67.528C185.901 67.3573 186.135 67.1387 186.317 66.872C186.509 66.5947 186.642 66.2853 186.717 65.944C186.802 65.592 186.845 65.2347 186.845 64.872ZM195.794 63.496C195.719 62.984 195.511 62.6 195.17 62.344C194.839 62.0773 194.418 61.944 193.906 61.944C193.671 61.944 193.421 61.9867 193.154 62.072C192.887 62.1467 192.642 62.296 192.418 62.52C192.194 62.7333 192.007 63.0373 191.858 63.432C191.709 63.816 191.634 64.3227 191.634 64.952C191.634 65.2933 191.671 65.6347 191.746 65.976C191.831 66.3173 191.959 66.6213 192.13 66.888C192.311 67.1547 192.541 67.3733 192.818 67.544C193.095 67.704 193.431 67.784 193.826 67.784C194.359 67.784 194.797 67.6187 195.138 67.288C195.49 66.9573 195.709 66.4933 195.794 65.896H197.618C197.447 66.9733 197.037 67.8 196.386 68.376C195.746 68.9413 194.893 69.224 193.826 69.224C193.175 69.224 192.599 69.1173 192.098 68.904C191.607 68.68 191.191 68.3813 190.85 68.008C190.509 67.624 190.247 67.1707 190.066 66.648C189.895 66.1253 189.81 65.56 189.81 64.952C189.81 64.3333 189.895 63.752 190.066 63.208C190.237 62.664 190.493 62.1947 190.834 61.8C191.175 61.3947 191.597 61.08 192.098 60.856C192.61 60.6213 193.207 60.504 193.89 60.504C194.37 60.504 194.823 60.568 195.25 60.696C195.687 60.8133 196.071 60.9947 196.402 61.24C196.743 61.4853 197.021 61.7947 197.234 62.168C197.447 62.5413 197.575 62.984 197.618 63.496H195.794ZM199.149 57.576H200.973V59.304H199.149V57.576ZM199.149 60.728H200.973V69H199.149V60.728ZM206.752 69.224C206.091 69.224 205.499 69.1173 204.976 68.904C204.464 68.68 204.027 68.376 203.664 67.992C203.312 67.608 203.04 67.1493 202.848 66.616C202.667 66.0827 202.576 65.496 202.576 64.856C202.576 64.2267 202.667 63.6453 202.848 63.112C203.04 62.5787 203.312 62.12 203.664 61.736C204.027 61.352 204.464 61.0533 204.976 60.84C205.499 60.616 206.091 60.504 206.752 60.504C207.413 60.504 208 60.616 208.512 60.84C209.035 61.0533 209.472 61.352 209.824 61.736C210.187 62.12 210.459 62.5787 210.64 63.112C210.832 63.6453 210.928 64.2267 210.928 64.856C210.928 65.496 210.832 66.0827 210.64 66.616C210.459 67.1493 210.187 67.608 209.824 67.992C209.472 68.376 209.035 68.68 208.512 68.904C208 69.1173 207.413 69.224 206.752 69.224ZM206.752 67.784C207.157 67.784 207.509 67.6987 207.808 67.528C208.107 67.3573 208.352 67.1333 208.544 66.856C208.736 66.5787 208.875 66.2693 208.96 65.928C209.056 65.576 209.104 65.2187 209.104 64.856C209.104 64.504 209.056 64.152 208.96 63.8C208.875 63.448 208.736 63.1387 208.544 62.872C208.352 62.5947 208.107 62.3707 207.808 62.2C207.509 62.0293 207.157 61.944 206.752 61.944C206.347 61.944 205.995 62.0293 205.696 62.2C205.397 62.3707 205.152 62.5947 204.96 62.872C204.768 63.1387 204.624 63.448 204.528 63.8C204.443 64.152 204.4 64.504 204.4 64.856C204.4 65.2187 204.443 65.576 204.528 65.928C204.624 66.2693 204.768 66.5787 204.96 66.856C205.152 67.1333 205.397 67.3573 205.696 67.528C205.995 67.6987 206.347 67.784 206.752 67.784ZM207.28 57.288H209.44L207.168 59.576H205.84L207.28 57.288ZM212.444 60.728H214.172V61.944L214.204 61.976C214.482 61.5173 214.844 61.16 215.292 60.904C215.74 60.6373 216.236 60.504 216.78 60.504C217.687 60.504 218.402 60.7387 218.924 61.208C219.447 61.6773 219.708 62.3813 219.708 63.32V69H217.884V63.8C217.863 63.1493 217.724 62.68 217.468 62.392C217.212 62.0933 216.812 61.944 216.268 61.944C215.959 61.944 215.682 62.0027 215.436 62.12C215.191 62.2267 214.983 62.3813 214.812 62.584C214.642 62.776 214.508 63.0053 214.412 63.272C214.316 63.5387 214.268 63.8213 214.268 64.12V69H212.444V60.728ZM226.133 60.728H227.861V61.848H227.893C228.149 61.368 228.506 61.0267 228.965 60.824C229.424 60.6107 229.92 60.504 230.453 60.504C231.104 60.504 231.669 60.6213 232.149 60.856C232.64 61.08 233.045 61.3947 233.365 61.8C233.685 62.1947 233.925 62.6587 234.085 63.192C234.245 63.7253 234.325 64.296 234.325 64.904C234.325 65.4587 234.25 65.9973 234.101 66.52C233.962 67.0427 233.744 67.5067 233.445 67.912C233.157 68.3067 232.789 68.6267 232.341 68.872C231.893 69.1067 231.365 69.224 230.757 69.224C230.49 69.224 230.224 69.1973 229.957 69.144C229.69 69.1013 229.434 69.0267 229.189 68.92C228.944 68.8133 228.714 68.68 228.501 68.52C228.298 68.3493 228.128 68.152 227.989 67.928H227.957V72.056H226.133V60.728ZM232.501 64.872C232.501 64.4987 232.453 64.136 232.357 63.784C232.261 63.432 232.117 63.1227 231.925 62.856C231.733 62.5787 231.493 62.36 231.205 62.2C230.917 62.0293 230.586 61.944 230.213 61.944C229.445 61.944 228.864 62.2107 228.469 62.744C228.085 63.2773 227.893 63.9867 227.893 64.872C227.893 65.288 227.941 65.6773 228.037 66.04C228.144 66.392 228.298 66.696 228.501 66.952C228.704 67.208 228.944 67.4107 229.221 67.56C229.509 67.7093 229.84 67.784 230.213 67.784C230.629 67.784 230.981 67.6987 231.269 67.528C231.557 67.3573 231.792 67.1387 231.973 66.872C232.165 66.5947 232.298 66.2853 232.373 65.944C232.458 65.592 232.501 65.2347 232.501 64.872ZM242.794 67.16C242.794 67.384 242.821 67.544 242.874 67.64C242.938 67.736 243.056 67.784 243.226 67.784C243.28 67.784 243.344 67.784 243.418 67.784C243.493 67.784 243.578 67.7733 243.674 67.752V69.016C243.61 69.0373 243.525 69.0587 243.418 69.08C243.322 69.112 243.221 69.1387 243.114 69.16C243.008 69.1813 242.901 69.1973 242.794 69.208C242.688 69.2187 242.597 69.224 242.522 69.224C242.149 69.224 241.84 69.1493 241.594 69C241.349 68.8507 241.189 68.5893 241.114 68.216C240.752 68.568 240.304 68.824 239.77 68.984C239.248 69.144 238.741 69.224 238.25 69.224C237.877 69.224 237.52 69.1707 237.178 69.064C236.837 68.968 236.533 68.824 236.266 68.632C236.01 68.4293 235.802 68.1787 235.642 67.88C235.493 67.5707 235.418 67.2133 235.418 66.808C235.418 66.296 235.509 65.88 235.69 65.56C235.882 65.24 236.128 64.9893 236.426 64.808C236.736 64.6267 237.077 64.4987 237.45 64.424C237.834 64.3387 238.218 64.2747 238.602 64.232C238.933 64.168 239.248 64.1253 239.546 64.104C239.845 64.072 240.106 64.024 240.33 63.96C240.565 63.896 240.746 63.8 240.874 63.672C241.013 63.5333 241.082 63.3307 241.082 63.064C241.082 62.8293 241.024 62.6373 240.906 62.488C240.8 62.3387 240.661 62.2267 240.49 62.152C240.33 62.0667 240.149 62.0133 239.946 61.992C239.744 61.96 239.552 61.944 239.37 61.944C238.858 61.944 238.437 62.0507 238.106 62.264C237.776 62.4773 237.589 62.808 237.546 63.256H235.722C235.754 62.7227 235.882 62.28 236.106 61.928C236.33 61.576 236.613 61.2933 236.954 61.08C237.306 60.8667 237.701 60.7173 238.138 60.632C238.576 60.5467 239.024 60.504 239.482 60.504C239.888 60.504 240.288 60.5467 240.682 60.632C241.077 60.7173 241.429 60.856 241.738 61.048C242.058 61.24 242.314 61.4907 242.506 61.8C242.698 62.0987 242.794 62.4667 242.794 62.904V67.16ZM240.97 64.856C240.693 65.0373 240.352 65.1493 239.946 65.192C239.541 65.224 239.136 65.2773 238.73 65.352C238.538 65.384 238.352 65.432 238.17 65.496C237.989 65.5493 237.829 65.6293 237.69 65.736C237.552 65.832 237.44 65.9653 237.354 66.136C237.28 66.296 237.242 66.4933 237.242 66.728C237.242 66.9307 237.301 67.1013 237.418 67.24C237.536 67.3787 237.674 67.4907 237.834 67.576C238.005 67.6507 238.186 67.704 238.378 67.736C238.581 67.768 238.762 67.784 238.922 67.784C239.125 67.784 239.344 67.7573 239.578 67.704C239.813 67.6507 240.032 67.56 240.234 67.432C240.448 67.304 240.624 67.144 240.762 66.952C240.901 66.7493 240.97 66.504 240.97 66.216V64.856ZM244.757 60.728H246.469V62.328H246.501C246.554 62.104 246.656 61.8853 246.805 61.672C246.965 61.4587 247.152 61.2667 247.365 61.096C247.589 60.9147 247.834 60.7707 248.101 60.664C248.368 60.5573 248.64 60.504 248.917 60.504C249.13 60.504 249.274 60.5093 249.349 60.52C249.434 60.5307 249.52 60.5413 249.605 60.552V62.312C249.477 62.2907 249.344 62.2747 249.205 62.264C249.077 62.2427 248.949 62.232 248.821 62.232C248.512 62.232 248.218 62.296 247.941 62.424C247.674 62.5413 247.44 62.7227 247.237 62.968C247.034 63.2027 246.874 63.496 246.757 63.848C246.64 64.2 246.581 64.6053 246.581 65.064V69H244.757V60.728ZM257.31 67.16C257.31 67.384 257.337 67.544 257.39 67.64C257.454 67.736 257.571 67.784 257.742 67.784C257.795 67.784 257.859 67.784 257.934 67.784C258.009 67.784 258.094 67.7733 258.19 67.752V69.016C258.126 69.0373 258.041 69.0587 257.934 69.08C257.838 69.112 257.737 69.1387 257.63 69.16C257.523 69.1813 257.417 69.1973 257.31 69.208C257.203 69.2187 257.113 69.224 257.038 69.224C256.665 69.224 256.355 69.1493 256.11 69C255.865 68.8507 255.705 68.5893 255.63 68.216C255.267 68.568 254.819 68.824 254.286 68.984C253.763 69.144 253.257 69.224 252.766 69.224C252.393 69.224 252.035 69.1707 251.694 69.064C251.353 68.968 251.049 68.824 250.782 68.632C250.526 68.4293 250.318 68.1787 250.158 67.88C250.009 67.5707 249.934 67.2133 249.934 66.808C249.934 66.296 250.025 65.88 250.206 65.56C250.398 65.24 250.643 64.9893 250.942 64.808C251.251 64.6267 251.593 64.4987 251.966 64.424C252.35 64.3387 252.734 64.2747 253.118 64.232C253.449 64.168 253.763 64.1253 254.062 64.104C254.361 64.072 254.622 64.024 254.846 63.96C255.081 63.896 255.262 63.8 255.39 63.672C255.529 63.5333 255.598 63.3307 255.598 63.064C255.598 62.8293 255.539 62.6373 255.422 62.488C255.315 62.3387 255.177 62.2267 255.006 62.152C254.846 62.0667 254.665 62.0133 254.462 61.992C254.259 61.96 254.067 61.944 253.886 61.944C253.374 61.944 252.953 62.0507 252.622 62.264C252.291 62.4773 252.105 62.808 252.062 63.256H250.238C250.27 62.7227 250.398 62.28 250.622 61.928C250.846 61.576 251.129 61.2933 251.47 61.08C251.822 60.8667 252.217 60.7173 252.654 60.632C253.091 60.5467 253.539 60.504 253.998 60.504C254.403 60.504 254.803 60.5467 255.198 60.632C255.593 60.7173 255.945 60.856 256.254 61.048C256.574 61.24 256.83 61.4907 257.022 61.8C257.214 62.0987 257.31 62.4667 257.31 62.904V67.16ZM255.486 64.856C255.209 65.0373 254.867 65.1493 254.462 65.192C254.057 65.224 253.651 65.2773 253.246 65.352C253.054 65.384 252.867 65.432 252.686 65.496C252.505 65.5493 252.345 65.6293 252.206 65.736C252.067 65.832 251.955 65.9653 251.87 66.136C251.795 66.296 251.758 66.4933 251.758 66.728C251.758 66.9307 251.817 67.1013 251.934 67.24C252.051 67.3787 252.19 67.4907 252.35 67.576C252.521 67.6507 252.702 67.704 252.894 67.736C253.097 67.768 253.278 67.784 253.438 67.784C253.641 67.784 253.859 67.7573 254.094 67.704C254.329 67.6507 254.547 67.56 254.75 67.432C254.963 67.304 255.139 67.144 255.278 66.952C255.417 66.7493 255.486 66.504 255.486 66.216V64.856ZM269.31 63.496C269.235 62.984 269.027 62.6 268.686 62.344C268.355 62.0773 267.934 61.944 267.422 61.944C267.187 61.944 266.936 61.9867 266.67 62.072C266.403 62.1467 266.158 62.296 265.934 62.52C265.71 62.7333 265.523 63.0373 265.374 63.432C265.224 63.816 265.15 64.3227 265.15 64.952C265.15 65.2933 265.187 65.6347 265.262 65.976C265.347 66.3173 265.475 66.6213 265.646 66.888C265.827 67.1547 266.056 67.3733 266.334 67.544C266.611 67.704 266.947 67.784 267.342 67.784C267.875 67.784 268.312 67.6187 268.654 67.288C269.006 66.9573 269.224 66.4933 269.31 65.896H271.134C270.963 66.9733 270.552 67.8 269.902 68.376C269.262 68.9413 268.408 69.224 267.342 69.224C266.691 69.224 266.115 69.1173 265.614 68.904C265.123 68.68 264.707 68.3813 264.366 68.008C264.024 67.624 263.763 67.1707 263.582 66.648C263.411 66.1253 263.326 65.56 263.326 64.952C263.326 64.3333 263.411 63.752 263.582 63.208C263.752 62.664 264.008 62.1947 264.35 61.8C264.691 61.3947 265.112 61.08 265.614 60.856C266.126 60.6213 266.723 60.504 267.406 60.504C267.886 60.504 268.339 60.568 268.766 60.696C269.203 60.8133 269.587 60.9947 269.918 61.24C270.259 61.4853 270.536 61.7947 270.75 62.168C270.963 62.5413 271.091 62.984 271.134 63.496H269.31ZM276.408 69.224C275.747 69.224 275.155 69.1173 274.632 68.904C274.12 68.68 273.683 68.376 273.32 67.992C272.968 67.608 272.696 67.1493 272.504 66.616C272.323 66.0827 272.232 65.496 272.232 64.856C272.232 64.2267 272.323 63.6453 272.504 63.112C272.696 62.5787 272.968 62.12 273.32 61.736C273.683 61.352 274.12 61.0533 274.632 60.84C275.155 60.616 275.747 60.504 276.408 60.504C277.07 60.504 277.656 60.616 278.168 60.84C278.691 61.0533 279.128 61.352 279.48 61.736C279.843 62.12 280.115 62.5787 280.296 63.112C280.488 63.6453 280.584 64.2267 280.584 64.856C280.584 65.496 280.488 66.0827 280.296 66.616C280.115 67.1493 279.843 67.608 279.48 67.992C279.128 68.376 278.691 68.68 278.168 68.904C277.656 69.1173 277.07 69.224 276.408 69.224ZM276.408 67.784C276.814 67.784 277.166 67.6987 277.464 67.528C277.763 67.3573 278.008 67.1333 278.2 66.856C278.392 66.5787 278.531 66.2693 278.616 65.928C278.712 65.576 278.76 65.2187 278.76 64.856C278.76 64.504 278.712 64.152 278.616 63.8C278.531 63.448 278.392 63.1387 278.2 62.872C278.008 62.5947 277.763 62.3707 277.464 62.2C277.166 62.0293 276.814 61.944 276.408 61.944C276.003 61.944 275.651 62.0293 275.352 62.2C275.054 62.3707 274.808 62.5947 274.616 62.872C274.424 63.1387 274.28 63.448 274.184 63.8C274.099 64.152 274.056 64.504 274.056 64.856C274.056 65.2187 274.099 65.576 274.184 65.928C274.28 66.2693 274.424 66.5787 274.616 66.856C274.808 67.1333 275.054 67.3573 275.352 67.528C275.651 67.6987 276.003 67.784 276.408 67.784ZM282.101 60.728H283.829V61.944L283.861 61.976C284.138 61.5173 284.501 61.16 284.949 60.904C285.397 60.6373 285.893 60.504 286.437 60.504C287.343 60.504 288.058 60.7387 288.581 61.208C289.103 61.6773 289.365 62.3813 289.365 63.32V69H287.541V63.8C287.519 63.1493 287.381 62.68 287.125 62.392C286.869 62.0933 286.469 61.944 285.925 61.944C285.615 61.944 285.338 62.0027 285.093 62.12C284.847 62.2267 284.639 62.3813 284.469 62.584C284.298 62.776 284.165 63.0053 284.069 63.272C283.973 63.5387 283.925 63.8213 283.925 64.12V69H282.101V60.728ZM290.456 60.728H291.832V58.248H293.656V60.728H295.304V62.088H293.656V66.504C293.656 66.696 293.661 66.8613 293.672 67C293.693 67.1387 293.731 67.256 293.784 67.352C293.848 67.448 293.939 67.5227 294.056 67.576C294.173 67.6187 294.333 67.64 294.536 67.64C294.664 67.64 294.792 67.64 294.92 67.64C295.048 67.6293 295.176 67.608 295.304 67.576V68.984C295.101 69.0053 294.904 69.0267 294.712 69.048C294.52 69.0693 294.323 69.08 294.12 69.08C293.64 69.08 293.251 69.0373 292.952 68.952C292.664 68.856 292.435 68.7227 292.264 68.552C292.104 68.3707 291.992 68.1467 291.928 67.88C291.875 67.6133 291.843 67.3093 291.832 66.968V62.088H290.456V60.728ZM296.664 57.576H298.488V59.304H296.664V57.576ZM296.664 60.728H298.488V69H296.664V60.728ZM300.476 60.728H302.204V61.944L302.236 61.976C302.513 61.5173 302.876 61.16 303.324 60.904C303.772 60.6373 304.268 60.504 304.812 60.504C305.718 60.504 306.433 60.7387 306.956 61.208C307.478 61.6773 307.74 62.3813 307.74 63.32V69H305.916V63.8C305.894 63.1493 305.756 62.68 305.5 62.392C305.244 62.0933 304.844 61.944 304.3 61.944C303.99 61.944 303.713 62.0027 303.468 62.12C303.222 62.2267 303.014 62.3813 302.844 62.584C302.673 62.776 302.54 63.0053 302.444 63.272C302.348 63.5387 302.3 63.8213 302.3 64.12V69H300.476V60.728ZM316.927 69H315.135V67.848H315.103C314.879 68.264 314.543 68.6 314.095 68.856C313.658 69.1013 313.21 69.224 312.751 69.224C311.663 69.224 310.874 68.9573 310.383 68.424C309.903 67.88 309.663 67.064 309.663 65.976V60.728H311.487V65.8C311.487 66.5253 311.626 67.0373 311.903 67.336C312.18 67.6347 312.57 67.784 313.071 67.784C313.455 67.784 313.775 67.7253 314.031 67.608C314.287 67.4907 314.495 67.336 314.655 67.144C314.815 66.9413 314.927 66.7013 314.991 66.424C315.066 66.1467 315.103 65.848 315.103 65.528V60.728H316.927V69ZM325.779 67.16C325.779 67.384 325.805 67.544 325.859 67.64C325.923 67.736 326.04 67.784 326.211 67.784C326.264 67.784 326.328 67.784 326.403 67.784C326.477 67.784 326.563 67.7733 326.659 67.752V69.016C326.595 69.0373 326.509 69.0587 326.403 69.08C326.307 69.112 326.205 69.1387 326.099 69.16C325.992 69.1813 325.885 69.1973 325.779 69.208C325.672 69.2187 325.581 69.224 325.507 69.224C325.133 69.224 324.824 69.1493 324.579 69C324.333 68.8507 324.173 68.5893 324.099 68.216C323.736 68.568 323.288 68.824 322.755 68.984C322.232 69.144 321.725 69.224 321.235 69.224C320.861 69.224 320.504 69.1707 320.163 69.064C319.821 68.968 319.517 68.824 319.251 68.632C318.995 68.4293 318.787 68.1787 318.627 67.88C318.477 67.5707 318.403 67.2133 318.403 66.808C318.403 66.296 318.493 65.88 318.675 65.56C318.867 65.24 319.112 64.9893 319.411 64.808C319.72 64.6267 320.061 64.4987 320.435 64.424C320.819 64.3387 321.203 64.2747 321.587 64.232C321.917 64.168 322.232 64.1253 322.531 64.104C322.829 64.072 323.091 64.024 323.315 63.96C323.549 63.896 323.731 63.8 323.859 63.672C323.997 63.5333 324.067 63.3307 324.067 63.064C324.067 62.8293 324.008 62.6373 323.891 62.488C323.784 62.3387 323.645 62.2267 323.475 62.152C323.315 62.0667 323.133 62.0133 322.931 61.992C322.728 61.96 322.536 61.944 322.355 61.944C321.843 61.944 321.421 62.0507 321.091 62.264C320.76 62.4773 320.573 62.808 320.531 63.256H318.707C318.739 62.7227 318.867 62.28 319.091 61.928C319.315 61.576 319.597 61.2933 319.939 61.08C320.291 60.8667 320.685 60.7173 321.123 60.632C321.56 60.5467 322.008 60.504 322.467 60.504C322.872 60.504 323.272 60.5467 323.667 60.632C324.061 60.7173 324.413 60.856 324.723 61.048C325.043 61.24 325.299 61.4907 325.491 61.8C325.683 62.0987 325.779 62.4667 325.779 62.904V67.16ZM323.955 64.856C323.677 65.0373 323.336 65.1493 322.931 65.192C322.525 65.224 322.12 65.2773 321.715 65.352C321.523 65.384 321.336 65.432 321.155 65.496C320.973 65.5493 320.813 65.6293 320.675 65.736C320.536 65.832 320.424 65.9653 320.339 66.136C320.264 66.296 320.227 66.4933 320.227 66.728C320.227 66.9307 320.285 67.1013 320.403 67.24C320.52 67.3787 320.659 67.4907 320.819 67.576C320.989 67.6507 321.171 67.704 321.363 67.736C321.565 67.768 321.747 67.784 321.907 67.784C322.109 67.784 322.328 67.7573 322.563 67.704C322.797 67.6507 323.016 67.56 323.219 67.432C323.432 67.304 323.608 67.144 323.747 66.952C323.885 66.7493 323.955 66.504 323.955 66.216V64.856ZM327.741 60.728H329.453V62.328H329.485C329.539 62.104 329.64 61.8853 329.789 61.672C329.949 61.4587 330.136 61.2667 330.349 61.096C330.573 60.9147 330.819 60.7707 331.085 60.664C331.352 60.5573 331.624 60.504 331.901 60.504C332.115 60.504 332.259 60.5093 332.333 60.52C332.419 60.5307 332.504 60.5413 332.589 60.552V62.312C332.461 62.2907 332.328 62.2747 332.189 62.264C332.061 62.2427 331.933 62.232 331.805 62.232C331.496 62.232 331.203 62.296 330.925 62.424C330.659 62.5413 330.424 62.7227 330.221 62.968C330.019 63.2027 329.859 63.496 329.741 63.848C329.624 64.2 329.565 64.6053 329.565 65.064V69H327.741V60.728Z" fill="#363F4D"/>
<rect x="48" y="96" width="305" height="46" rx="5" fill="#F8F9FA"/>
<path d="M81.3149 108.333C83.3235 108.333 84.9647 109.896 84.9647 111.81V123.038C84.9647 124.952 83.3246 126.514 81.3149 126.514H69.5234C67.5168 126.513 65.8746 124.951 65.8746 123.038V111.81C65.8746 109.896 67.5158 108.333 69.5244 108.333H81.3149ZM67.2396 115.262V123.038C67.2396 124.233 68.2686 125.214 69.5244 125.214H81.3149C82.5707 125.214 83.5997 124.234 83.5997 123.038V115.263L79.3304 118.655L82.5182 121.249C82.7754 121.459 82.829 121.813 82.6589 122.08L82.5938 122.166C82.3481 122.439 81.9176 122.471 81.6309 122.238L78.2667 119.5L75.857 121.415C75.6323 121.594 75.3162 121.614 75.0705 121.475L74.9823 121.415L72.5726 119.5L69.2084 122.238C68.9501 122.448 68.5752 122.442 68.3243 122.24L68.2455 122.166C68.0009 121.893 68.0355 121.483 68.3211 121.249L71.5089 118.655L67.2396 115.262ZM81.3149 109.632H69.5234C68.2707 109.633 67.2396 110.615 67.2396 111.811V113.57L75.4191 120.07L83.5986 113.57V111.81C83.5986 110.615 82.5696 109.634 81.3149 109.634V109.632Z" fill="#1A75CF"/>
<path d="M186.234 118.742H181.305V122.773H187.031V124H179.805V112.625H186.953V113.859H181.305V117.516H186.234V118.742ZM191.68 119.758H187.867V118.578H191.68V119.758ZM194.453 115.547L194.492 116.484C195.112 115.755 195.948 115.391 197 115.391C198.182 115.391 198.987 115.844 199.414 116.75C199.695 116.344 200.06 116.016 200.508 115.766C200.961 115.516 201.495 115.391 202.109 115.391C203.964 115.391 204.906 116.372 204.938 118.336V124H203.492V118.422C203.492 117.818 203.354 117.367 203.078 117.07C202.802 116.768 202.339 116.617 201.688 116.617C201.151 116.617 200.706 116.779 200.352 117.102C199.997 117.419 199.792 117.849 199.734 118.391V124H198.281V118.461C198.281 117.232 197.68 116.617 196.477 116.617C195.529 116.617 194.88 117.021 194.531 117.828V124H193.086V115.547H194.453ZM212.344 124C212.26 123.833 212.193 123.536 212.141 123.109C211.469 123.807 210.667 124.156 209.734 124.156C208.901 124.156 208.216 123.922 207.68 123.453C207.148 122.979 206.883 122.38 206.883 121.656C206.883 120.776 207.216 120.094 207.883 119.609C208.555 119.12 209.497 118.875 210.711 118.875H212.117V118.211C212.117 117.706 211.966 117.305 211.664 117.008C211.362 116.706 210.917 116.555 210.328 116.555C209.812 116.555 209.38 116.685 209.031 116.945C208.682 117.206 208.508 117.521 208.508 117.891H207.055C207.055 117.469 207.203 117.062 207.5 116.672C207.802 116.276 208.208 115.964 208.719 115.734C209.234 115.505 209.799 115.391 210.414 115.391C211.388 115.391 212.151 115.635 212.703 116.125C213.255 116.609 213.542 117.279 213.562 118.133V122.023C213.562 122.799 213.661 123.417 213.859 123.875V124H212.344ZM209.945 122.898C210.398 122.898 210.828 122.781 211.234 122.547C211.641 122.312 211.935 122.008 212.117 121.633V119.898H210.984C209.214 119.898 208.328 120.417 208.328 121.453C208.328 121.906 208.479 122.26 208.781 122.516C209.083 122.771 209.471 122.898 209.945 122.898ZM217.398 124H215.953V115.547H217.398V124ZM215.836 113.305C215.836 113.07 215.906 112.872 216.047 112.711C216.193 112.549 216.406 112.469 216.688 112.469C216.969 112.469 217.182 112.549 217.328 112.711C217.474 112.872 217.547 113.07 217.547 113.305C217.547 113.539 217.474 113.734 217.328 113.891C217.182 114.047 216.969 114.125 216.688 114.125C216.406 114.125 216.193 114.047 216.047 113.891C215.906 113.734 215.836 113.539 215.836 113.305ZM221.289 124H219.844V112H221.289V124Z" fill="#3F474F"/>
<rect x="48" y="150" width="305" height="46" rx="5" fill="#F8F9FA"/>
<path d="M83.375 161H67.625C66.1773 161 65 162.177 65 163.625V179.375C65 180.823 66.1773 182 67.625 182H83.375C84.8227 182 86 180.823 86 179.375V163.625C86 162.177 84.8227 161 83.375 161Z" fill="#2F80ED"/>
<path d="M82.7188 171.5H79.4375V168.875C79.4375 168.151 80.0255 168.219 80.75 168.219H82.0625V164.938H79.4375C77.2627 164.938 75.5 166.7 75.5 168.875V171.5H72.875V174.781H75.5V182H79.4375V174.781H81.4062L82.7188 171.5Z" fill="#FAFAFA"/>
<path d="M173.352 172.977H168.578V178H167.078V166.625H174.125V167.859H168.578V171.75H173.352V172.977ZM180.648 178C180.565 177.833 180.497 177.536 180.445 177.109C179.773 177.807 178.971 178.156 178.039 178.156C177.206 178.156 176.521 177.922 175.984 177.453C175.453 176.979 175.188 176.38 175.188 175.656C175.188 174.776 175.521 174.094 176.188 173.609C176.859 173.12 177.802 172.875 179.016 172.875H180.422V172.211C180.422 171.706 180.271 171.305 179.969 171.008C179.667 170.706 179.221 170.555 178.633 170.555C178.117 170.555 177.685 170.685 177.336 170.945C176.987 171.206 176.812 171.521 176.812 171.891H175.359C175.359 171.469 175.508 171.062 175.805 170.672C176.107 170.276 176.513 169.964 177.023 169.734C177.539 169.505 178.104 169.391 178.719 169.391C179.693 169.391 180.456 169.635 181.008 170.125C181.56 170.609 181.846 171.279 181.867 172.133V176.023C181.867 176.799 181.966 177.417 182.164 177.875V178H180.648ZM178.25 176.898C178.703 176.898 179.133 176.781 179.539 176.547C179.945 176.312 180.24 176.008 180.422 175.633V173.898H179.289C177.518 173.898 176.633 174.417 176.633 175.453C176.633 175.906 176.784 176.26 177.086 176.516C177.388 176.771 177.776 176.898 178.25 176.898ZM187.523 176.977C188.039 176.977 188.49 176.82 188.875 176.508C189.26 176.195 189.474 175.805 189.516 175.336H190.883C190.857 175.82 190.69 176.281 190.383 176.719C190.076 177.156 189.664 177.505 189.148 177.766C188.638 178.026 188.096 178.156 187.523 178.156C186.372 178.156 185.456 177.773 184.773 177.008C184.096 176.237 183.758 175.185 183.758 173.852V173.609C183.758 172.786 183.909 172.055 184.211 171.414C184.513 170.773 184.945 170.276 185.508 169.922C186.076 169.568 186.745 169.391 187.516 169.391C188.464 169.391 189.25 169.674 189.875 170.242C190.505 170.81 190.841 171.547 190.883 172.453H189.516C189.474 171.906 189.266 171.458 188.891 171.109C188.521 170.755 188.062 170.578 187.516 170.578C186.781 170.578 186.211 170.844 185.805 171.375C185.404 171.901 185.203 172.664 185.203 173.664V173.938C185.203 174.911 185.404 175.661 185.805 176.188C186.206 176.714 186.779 176.977 187.523 176.977ZM196.016 178.156C194.87 178.156 193.938 177.781 193.219 177.031C192.5 176.276 192.141 175.268 192.141 174.008V173.742C192.141 172.904 192.299 172.156 192.617 171.5C192.94 170.839 193.388 170.323 193.961 169.953C194.539 169.578 195.164 169.391 195.836 169.391C196.935 169.391 197.789 169.753 198.398 170.477C199.008 171.201 199.312 172.237 199.312 173.586V174.188H193.586C193.607 175.021 193.849 175.695 194.312 176.211C194.781 176.721 195.375 176.977 196.094 176.977C196.604 176.977 197.036 176.872 197.391 176.664C197.745 176.456 198.055 176.18 198.32 175.836L199.203 176.523C198.495 177.612 197.432 178.156 196.016 178.156ZM195.836 170.578C195.253 170.578 194.763 170.792 194.367 171.219C193.971 171.641 193.727 172.234 193.633 173H197.867V172.891C197.826 172.156 197.628 171.589 197.273 171.188C196.919 170.781 196.44 170.578 195.836 170.578ZM208.148 173.867C208.148 175.159 207.852 176.198 207.258 176.984C206.664 177.766 205.867 178.156 204.867 178.156C203.799 178.156 202.974 177.779 202.391 177.023L202.32 178H200.992V166H202.438V170.477C203.021 169.753 203.826 169.391 204.852 169.391C205.878 169.391 206.682 169.779 207.266 170.555C207.854 171.331 208.148 172.393 208.148 173.742V173.867ZM206.703 173.703C206.703 172.719 206.513 171.958 206.133 171.422C205.753 170.885 205.206 170.617 204.492 170.617C203.539 170.617 202.854 171.06 202.438 171.945V175.602C202.88 176.487 203.57 176.93 204.508 176.93C205.201 176.93 205.74 176.661 206.125 176.125C206.51 175.589 206.703 174.781 206.703 173.703ZM209.594 173.695C209.594 172.867 209.755 172.122 210.078 171.461C210.406 170.799 210.859 170.289 211.438 169.93C212.021 169.57 212.685 169.391 213.43 169.391C214.581 169.391 215.51 169.789 216.219 170.586C216.932 171.383 217.289 172.443 217.289 173.766V173.867C217.289 174.69 217.13 175.43 216.812 176.086C216.5 176.737 216.049 177.245 215.461 177.609C214.878 177.974 214.206 178.156 213.445 178.156C212.299 178.156 211.37 177.758 210.656 176.961C209.948 176.164 209.594 175.109 209.594 173.797V173.695ZM211.047 173.867C211.047 174.805 211.263 175.557 211.695 176.125C212.133 176.693 212.716 176.977 213.445 176.977C214.18 176.977 214.763 176.69 215.195 176.117C215.628 175.539 215.844 174.732 215.844 173.695C215.844 172.768 215.622 172.018 215.18 171.445C214.742 170.867 214.159 170.578 213.43 170.578C212.716 170.578 212.141 170.862 211.703 171.43C211.266 171.997 211.047 172.81 211.047 173.867ZM218.719 173.695C218.719 172.867 218.88 172.122 219.203 171.461C219.531 170.799 219.984 170.289 220.562 169.93C221.146 169.57 221.81 169.391 222.555 169.391C223.706 169.391 224.635 169.789 225.344 170.586C226.057 171.383 226.414 172.443 226.414 173.766V173.867C226.414 174.69 226.255 175.43 225.938 176.086C225.625 176.737 225.174 177.245 224.586 177.609C224.003 177.974 223.331 178.156 222.57 178.156C221.424 178.156 220.495 177.758 219.781 176.961C219.073 176.164 218.719 175.109 218.719 173.797V173.695ZM220.172 173.867C220.172 174.805 220.388 175.557 220.82 176.125C221.258 176.693 221.841 176.977 222.57 176.977C223.305 176.977 223.888 176.69 224.32 176.117C224.753 175.539 224.969 174.732 224.969 173.695C224.969 172.768 224.747 172.018 224.305 171.445C223.867 170.867 223.284 170.578 222.555 170.578C221.841 170.578 221.266 170.862 220.828 171.43C220.391 171.997 220.172 172.81 220.172 173.867ZM230.586 174.086L229.68 175.031V178H228.234V166H229.68V173.258L230.453 172.328L233.086 169.547H234.844L231.555 173.078L235.227 178H233.531L230.586 174.086Z" fill="#3F474F"/>
<rect x="48" y="204" width="305" height="46" rx="5" fill="#F8F9FA"/>
<g clip-path="url(#clip0)">
<path d="M85.2069 223.674L76.6413 223.674C76.263 223.674 75.9564 223.981 75.9564 224.359V227.095C75.9564 227.473 76.263 227.78 76.6412 227.78H81.4649C80.9367 229.151 79.9508 230.299 78.6931 231.028L80.7499 234.589C84.0492 232.68 85.9998 229.332 85.9998 225.584C85.9998 225.051 85.9605 224.669 85.8818 224.24C85.822 223.913 85.5387 223.674 85.2069 223.674Z" fill="#167EE6"/>
<path d="M75.5001 231.891C73.1395 231.891 71.0787 230.602 69.9719 228.693L66.4115 230.745C68.2234 233.885 71.6176 236 75.5001 236C77.4048 236 79.2019 235.487 80.7501 234.594V234.589L78.6933 231.028C77.7525 231.574 76.6638 231.891 75.5001 231.891Z" fill="#12B347"/>
<path d="M80.75 234.593V234.589L78.6932 231.028C77.7524 231.574 76.6637 231.891 75.5 231.891V236C77.4046 236 79.2019 235.487 80.75 234.593Z" fill="#0F993E"/>
<path d="M69.1087 225.5C69.1087 224.336 69.4262 223.248 69.9718 222.307L66.4114 220.255C65.5128 221.798 65 223.59 65 225.5C65 227.41 65.5128 229.202 66.4114 230.745L69.9718 228.693C69.4262 227.752 69.1087 226.664 69.1087 225.5Z" fill="#FFD500"/>
<path d="M75.5001 219.109C77.0395 219.109 78.4534 219.656 79.5579 220.566C79.8303 220.79 80.2263 220.774 80.4759 220.524L82.4147 218.585C82.6979 218.302 82.6777 217.839 82.3752 217.576C80.5248 215.971 78.1172 215 75.5001 215C71.6176 215 68.2234 217.115 66.4115 220.255L69.9719 222.307C71.0787 220.398 73.1395 219.109 75.5001 219.109Z" fill="#FF4B26"/>
<path d="M79.5578 220.566C79.8302 220.79 80.2263 220.774 80.4758 220.524L82.4146 218.585C82.6978 218.302 82.6776 217.839 82.3751 217.576C80.5247 215.971 78.1171 215 75.5 215V219.109C77.0393 219.109 78.4533 219.656 79.5578 220.566Z" fill="#D93F21"/>
</g>
<path d="M184.961 230.508C184.576 231.06 184.036 231.474 183.344 231.75C182.656 232.021 181.854 232.156 180.938 232.156C180.01 232.156 179.188 231.94 178.469 231.508C177.75 231.07 177.193 230.451 176.797 229.648C176.406 228.846 176.206 227.917 176.195 226.859V225.867C176.195 224.154 176.594 222.826 177.391 221.883C178.193 220.94 179.318 220.469 180.766 220.469C181.953 220.469 182.909 220.773 183.633 221.383C184.357 221.987 184.799 222.846 184.961 223.961H183.461C183.18 222.456 182.284 221.703 180.773 221.703C179.768 221.703 179.005 222.057 178.484 222.766C177.969 223.469 177.708 224.49 177.703 225.828V226.758C177.703 228.034 177.995 229.049 178.578 229.805C179.161 230.555 179.951 230.93 180.945 230.93C181.508 230.93 182 230.867 182.422 230.742C182.844 230.617 183.193 230.406 183.469 230.109V227.555H180.836V226.336H184.961V230.508ZM186.859 227.695C186.859 226.867 187.021 226.122 187.344 225.461C187.672 224.799 188.125 224.289 188.703 223.93C189.286 223.57 189.951 223.391 190.695 223.391C191.846 223.391 192.776 223.789 193.484 224.586C194.198 225.383 194.555 226.443 194.555 227.766V227.867C194.555 228.69 194.396 229.43 194.078 230.086C193.766 230.737 193.315 231.245 192.727 231.609C192.143 231.974 191.471 232.156 190.711 232.156C189.565 232.156 188.635 231.758 187.922 230.961C187.214 230.164 186.859 229.109 186.859 227.797V227.695ZM188.312 227.867C188.312 228.805 188.529 229.557 188.961 230.125C189.398 230.693 189.982 230.977 190.711 230.977C191.445 230.977 192.029 230.69 192.461 230.117C192.893 229.539 193.109 228.732 193.109 227.695C193.109 226.768 192.888 226.018 192.445 225.445C192.008 224.867 191.424 224.578 190.695 224.578C189.982 224.578 189.406 224.862 188.969 225.43C188.531 225.997 188.312 226.81 188.312 227.867ZM195.984 227.695C195.984 226.867 196.146 226.122 196.469 225.461C196.797 224.799 197.25 224.289 197.828 223.93C198.411 223.57 199.076 223.391 199.82 223.391C200.971 223.391 201.901 223.789 202.609 224.586C203.323 225.383 203.68 226.443 203.68 227.766V227.867C203.68 228.69 203.521 229.43 203.203 230.086C202.891 230.737 202.44 231.245 201.852 231.609C201.268 231.974 200.596 232.156 199.836 232.156C198.69 232.156 197.76 231.758 197.047 230.961C196.339 230.164 195.984 229.109 195.984 227.797V227.695ZM197.438 227.867C197.438 228.805 197.654 229.557 198.086 230.125C198.523 230.693 199.107 230.977 199.836 230.977C200.57 230.977 201.154 230.69 201.586 230.117C202.018 229.539 202.234 228.732 202.234 227.695C202.234 226.768 202.013 226.018 201.57 225.445C201.133 224.867 200.549 224.578 199.82 224.578C199.107 224.578 198.531 224.862 198.094 225.43C197.656 225.997 197.438 226.81 197.438 227.867ZM205.148 227.703C205.148 226.385 205.453 225.339 206.062 224.562C206.672 223.781 207.479 223.391 208.484 223.391C209.516 223.391 210.32 223.755 210.898 224.484L210.969 223.547H212.289V231.797C212.289 232.891 211.964 233.753 211.312 234.383C210.667 235.013 209.797 235.328 208.703 235.328C208.094 235.328 207.497 235.198 206.914 234.938C206.331 234.677 205.885 234.32 205.578 233.867L206.328 233C206.948 233.766 207.706 234.148 208.602 234.148C209.305 234.148 209.852 233.951 210.242 233.555C210.638 233.159 210.836 232.602 210.836 231.883V231.156C210.258 231.823 209.469 232.156 208.469 232.156C207.479 232.156 206.677 231.758 206.062 230.961C205.453 230.164 205.148 229.078 205.148 227.703ZM206.602 227.867C206.602 228.82 206.797 229.57 207.188 230.117C207.578 230.659 208.125 230.93 208.828 230.93C209.74 230.93 210.409 230.516 210.836 229.688V225.828C210.393 225.021 209.729 224.617 208.844 224.617C208.141 224.617 207.591 224.891 207.195 225.438C206.799 225.984 206.602 226.794 206.602 227.867ZM216.047 232H214.602V220H216.047V232ZM221.875 232.156C220.729 232.156 219.797 231.781 219.078 231.031C218.359 230.276 218 229.268 218 228.008V227.742C218 226.904 218.159 226.156 218.477 225.5C218.799 224.839 219.247 224.323 219.82 223.953C220.398 223.578 221.023 223.391 221.695 223.391C222.794 223.391 223.648 223.753 224.258 224.477C224.867 225.201 225.172 226.237 225.172 227.586V228.188H219.445C219.466 229.021 219.708 229.695 220.172 230.211C220.641 230.721 221.234 230.977 221.953 230.977C222.464 230.977 222.896 230.872 223.25 230.664C223.604 230.456 223.914 230.18 224.18 229.836L225.062 230.523C224.354 231.612 223.292 232.156 221.875 232.156ZM221.695 224.578C221.112 224.578 220.622 224.792 220.227 225.219C219.831 225.641 219.586 226.234 219.492 227H223.727V226.891C223.685 226.156 223.487 225.589 223.133 225.188C222.779 224.781 222.299 224.578 221.695 224.578Z" fill="#3F474F"/>
</g>
<defs>
<filter id="filter0_d" x="0" y="0" width="401" height="312" filterUnits="userSpaceOnUse" color-interpolation-filters="sRGB">
<feFlood flood-opacity="0" result="BackgroundImageFix"/>
<feColorMatrix in="SourceAlpha" type="matrix" values="0 0 0 0 0 0 0 0 0 0 0 0 0 0 0 0 0 0 127 0"/>
<feOffset dy="8"/>
<feGaussianBlur stdDeviation="8"/>
<feColorMatrix type="matrix" values="0 0 0 0 0.0392157 0 0 0 0 0.0392157 0 0 0 0 0.0392157 0 0 0 0.1 0"/>
<feBlend mode="normal" in2="BackgroundImageFix" result="effect1_dropShadow"/>
<feBlend mode="normal" in="SourceGraphic" in2="effect1_dropShadow" result="shape"/>
</filter>
<clipPath id="clip0">
<rect width="21" height="21" fill="white" transform="translate(65 215)"/>
</clipPath>
</defs>
</svg>
