<svg width="20" height="19" viewBox="0 0 20 19" fill="none" xmlns="http://www.w3.org/2000/svg">
<path d="M16.3149 0.333008C18.3235 0.333008 19.9647 1.89601 19.9647 3.81001V15.038C19.9647 16.952 18.3246 18.514 16.3149 18.514H4.52338C2.51683 18.513 0.874634 16.951 0.874634 15.038V3.81001C0.874634 1.89601 2.51578 0.333008 4.52443 0.333008H16.3149ZM2.23963 7.26201V15.038C2.23963 16.233 3.26863 17.214 4.52443 17.214H16.3149C17.5707 17.214 18.5997 16.234 18.5997 15.038V7.26301L14.3304 10.655L17.5182 13.249C17.7754 13.459 17.829 13.813 17.6589 14.08L17.5938 14.166C17.3481 14.439 16.9176 14.471 16.6309 14.238L13.2667 11.5L10.857 13.415C10.6323 13.594 10.3162 13.614 10.0705 13.475L9.98233 13.415L7.57258 11.5L4.20838 14.238C3.95008 14.448 3.57523 14.442 3.32428 14.24L3.24553 14.166C3.00088 13.893 3.03553 13.483 3.32113 13.249L6.50893 10.655L2.23963 7.26201ZM16.3149 1.63201H4.52338C3.27073 1.63301 2.23963 2.61501 2.23963 3.81101V5.57001L10.4191 12.07L18.5986 5.57001V3.81001C18.5986 2.61501 17.5696 1.63401 16.3149 1.63401V1.63201Z" fill="#1A75CF"/>
</svg>
